<svg id="Layer_1" data-name="Layer 1" xmlns="http://www.w3.org/2000/svg" viewBox="0 0 638 191.97"><defs><style>.cls-1,.cls-3,.cls-6{fill:#fff;}.cls-2{fill:#5b026a;}.cls-2,.cls-3{stroke:#5b026a;}.cls-2,.cls-3,.cls-4,.cls-7{stroke-miterlimit:2.41;}.cls-2,.cls-3,.cls-4{stroke-width:0.41px;}.cls-2,.cls-5,.cls-6,.cls-7,.cls-8,.cls-9{fill-rule:evenodd;}.cls-4,.cls-7{fill:none;stroke:#015f27;}.cls-5{fill:#015f27;}.cls-7{stroke-width:1.25px;}.cls-8{fill:#d8ad1e;}</style></defs><title>Meezan Bank Logo Vector</title><path class="cls-1" d="M277,404a96,96,0,1,1-96,96,96,96,0,0,1,96-96Z" transform="translate(-181 -404.02)"/><path class="cls-2" d="M189.33,500.08A87.64,87.64,0,1,1,277,587.72a87.63,87.63,0,0,1-87.63-87.64Z" transform="translate(-181 -404.02)"/><path class="cls-3" d="M220.37,500.08A56.59,56.59,0,1,1,277,556.67a56.59,56.59,0,0,1-56.59-56.59Z" transform="translate(-181 -404.02)"/><path class="cls-4" d="M223.7,500.08A53.26,53.26,0,1,1,277,553.34a53.26,53.26,0,0,1-53.26-53.26Z" transform="translate(-181 -404.02)"/><polygon class="cls-5" points="60.5 126.1 55.85 115.08 68.78 90.69 73.19 90.69 78.77 90.69 83.18 90.69 96.11 115.08 91.46 126.1 60.5 126.1 60.5 126.1"/><polygon class="cls-5" points="86.64 51.77 70.13 85.37 84.78 85.37 96.3 63.09 107.82 85.37 122.48 85.37 105.96 51.77 86.64 51.77 86.64 51.77"/><polygon class="cls-5" points="101.17 126.1 96.52 115.08 109.45 90.69 113.86 90.69 119.44 90.69 123.85 90.69 136.78 115.08 132.13 126.1 101.17 126.1 101.17 126.1"/><path class="cls-6" d="M327.71,450.42l2.81-8.47-8.16,3.66,5.35,4.81Zm-18.36-4.84L311,443.7l1.55,1.4,18.16-7.33,4.45,4-5.45,18.78,1.55,1.39-1.69,1.88-7.88-7.09,1.69-1.88,2.34,2.11,1.21-3.8-7.23-6.5-3.67,1.57,2.36,2.12-1.69,1.88-7.39-6.65Z" transform="translate(-181 -404.02)"/><polygon class="cls-6" points="150.51 63.28 152.88 62.41 153.92 65.26 168.08 60.11 167.04 57.26 169.42 56.39 172.74 65.53 161.2 80.07 173.7 75.56 172.65 72.68 175.03 71.81 178.56 81.49 176.18 82.36 175.2 79.68 158.67 85.7 156.46 79.62 168.32 64.72 155.42 69.38 156.41 72.1 154.03 72.96 150.51 63.28 150.51 63.28"/><polygon class="cls-6" points="102.61 34.14 103.36 31.14 120.97 20.49 111.25 18.07 110.28 21.97 106.27 20.97 107.84 14.7 127.19 19.52 126.44 22.52 108.63 33.11 119.26 35.77 120.28 31.71 124.28 32.7 122.68 39.14 102.61 34.14 102.61 34.14"/><polygon class="cls-6" points="74.63 37.6 74.19 35.11 77.17 34.58 74.56 19.74 71.57 20.27 71.13 17.78 92.43 14.03 93.5 20.09 89.54 20.79 88.92 17.21 79.49 18.88 80.55 24.91 84.33 24.24 83.88 21.67 87.29 21.07 88.63 28.62 85.21 29.23 84.77 26.74 80.99 27.4 82.1 33.71 91.53 32.05 90.86 28.23 94.82 27.53 95.93 33.84 74.63 37.6 74.63 37.6"/><polygon class="cls-6" points="51.04 53.06 49.55 51.01 52.01 49.23 43.15 37.04 40.7 38.82 39.21 36.77 56.71 24.06 60.33 29.04 57.08 31.4 54.94 28.47 47.2 34.1 50.8 39.05 53.91 36.8 52.37 34.68 55.18 32.64 59.69 38.85 56.88 40.89 55.39 38.84 52.29 41.1 56.05 46.28 63.8 40.66 61.52 37.52 64.77 35.16 68.54 40.34 51.04 53.06 51.04 53.06"/><polygon class="cls-6" points="47.01 56.49 42.58 66 40.28 64.92 41.46 62.41 27.83 56.05 40.91 69.57 38.96 73.74 20.31 72.18 33.92 78.57 35.02 76.22 37.31 77.29 33.17 86.16 30.88 85.09 32.13 82.41 18.48 76.04 17.23 78.72 14.93 77.66 19.49 67.89 35.93 69.55 24.12 57.95 28.77 47.98 31.06 49.05 29.81 51.74 43.46 58.1 44.71 55.42 47.01 56.49 47.01 56.49"/><path class="cls-6" d="M240.71,550.4a17.45,17.45,0,0,1,2.68,2.44,8.09,8.09,0,0,1,1.2,2.09,4.12,4.12,0,0,1,.18,2.31,4.74,4.74,0,0,1-.9,2.11c-1.64,2.1-3.94,2.26-6.87.49a5.59,5.59,0,0,1,2.29,3.71,4.71,4.71,0,0,1-.95,3.76,4.38,4.38,0,0,1-2.42,1.56,5.49,5.49,0,0,1-3,0,9.94,9.94,0,0,1-2.83-1.31c-.87-.59-1.88-1.33-3-2.23L218,558.15l1.58-2,2.36,1.85,9.25-11.86-2.35-1.84,1.55-2,10.37,8.1Zm-5.62-1.18L231.37,554l2.3,1.8c.79.61,1.42,1.07,1.9,1.37a3.63,3.63,0,0,0,1.49.53,3,3,0,0,0,1.47-.28,2.87,2.87,0,0,0,1.82-2.39,2,2,0,0,0-.33-1.48,6.2,6.2,0,0,0-1.05-1.21c-.42-.37-.84-.73-1.26-1.05l-1-.77-1.64-1.28Zm-6.62,13.94a12.23,12.23,0,0,0,2.06,1.39,3.81,3.81,0,0,0,1.53.42,2.78,2.78,0,0,0,1.48-.24,3,3,0,0,0,1.19-.92,2.42,2.42,0,0,0,.55-2.61,5.87,5.87,0,0,0-1.06-1.67,15.12,15.12,0,0,0-1.44-1.24l-.35-.27-2.62-2-4,5.12,2.65,2.07Z" transform="translate(-181 -404.02)"/><path class="cls-6" d="M259,570.51l-1-8.87-5.85,6.77,6.89,2.1Zm-18.69,3.37.74-2.42,2,.61,13.35-14.32,5.73,1.76,3,19.31,2,.61-.74,2.42-10.13-3.1.74-2.42,3,.92-.51-4-9.3-2.84-2.66,3,3,.93-.74,2.41-9.51-2.9Z" transform="translate(-181 -404.02)"/><polygon class="cls-6" points="93.73 178.2 93.42 175.69 96.43 175.32 94.6 160.36 91.58 160.73 91.28 158.22 100.92 157.04 112.5 171.56 110.92 158.36 107.87 158.73 107.56 156.22 117.79 154.97 118.1 157.48 115.27 157.82 117.41 175.29 110.99 176.08 99.15 161.16 100.78 174.78 103.65 174.43 103.96 176.94 93.73 178.2 93.73 178.2"/><polygon class="cls-6" points="135.06 168.7 133.54 166.68 135.93 164.88 126.86 152.84 124.47 154.65 122.95 152.63 131.7 146.03 133.22 148.05 130.86 149.83 134.9 155.19 136.99 145.22 135.03 146.69 133.51 144.67 141.56 138.6 143.09 140.62 141.51 141.8 139.22 151.94 150.99 153.53 152.62 152.3 154.15 154.32 145.77 160.63 144.25 158.61 146.32 157.05 135.16 155.53 139.93 161.86 142.29 160.08 143.81 162.1 135.06 168.7 135.06 168.7"/><path class="cls-7" d="M184.43,500.08A92.53,92.53,0,1,1,277,592.61a92.53,92.53,0,0,1-92.53-92.53Z" transform="translate(-181 -404.02)"/><path class="cls-6" d="M485.76,568.41c0,.13.16.22.37.27h.22s0-.08,0-.12-.61-.29-.61-.14Z" transform="translate(-181 -404.02)"/><path class="cls-8" d="M485.76,568.41c0,.13.16.22.37.27h.22s0-.08,0-.12-.61-.29-.61-.14Z" transform="translate(-181 -404.02)"/><path class="cls-6" d="M524.05,564.53c0,.05.1.07.19.07s.15,0,.15-.07,0-.09,0-.11-.32,0-.32.11Z" transform="translate(-181 -404.02)"/><path class="cls-8" d="M524.05,564.53c0,.05.1.07.19.07s.15,0,.15-.07,0-.09,0-.11-.32,0-.32.11Z" transform="translate(-181 -404.02)"/><path class="cls-6" d="M517.54,564.76c-.1,0-.12-.11-.24-.11s-.2.14-.2.24.09.08.09.14-.12.07-.21.12l.16-.09a.72.72,0,0,0,.33.07c.13,0,.28,0,.28-.11s-.09-.18-.21-.26Z" transform="translate(-181 -404.02)"/><path class="cls-8" d="M517.54,564.76c-.1,0-.12-.11-.24-.11s-.2.14-.2.24.09.08.09.14-.12.07-.21.12l.16-.09a.72.72,0,0,0,.33.07c.13,0,.28,0,.28-.11s-.09-.18-.21-.26Z" transform="translate(-181 -404.02)"/><path class="cls-6" d="M484.69,568.47a.37.37,0,0,0-.32-.16c-.1,0-.15.05-.24.07s-.4,0-.4.16.25.26.53.26.53,0,.53-.18-.06-.1-.1-.15Z" transform="translate(-181 -404.02)"/><path class="cls-8" d="M484.69,568.47a.37.37,0,0,0-.32-.16c-.1,0-.15.05-.24.07s-.4,0-.4.16.25.26.53.26.53,0,.53-.18-.06-.1-.1-.15Z" transform="translate(-181 -404.02)"/><path class="cls-6" d="M497.49,567.17h-.3a.85.85,0,0,1-.22.09H497c-.06,0-.13.08-.13.13s.3.3.61.3.37-.08.37-.19-.14-.32-.4-.32Z" transform="translate(-181 -404.02)"/><path class="cls-8" d="M497.49,567.17h-.3a.85.85,0,0,1-.22.09H497c-.06,0-.13.08-.13.13s.3.3.61.3.37-.08.37-.19-.14-.32-.4-.32Z" transform="translate(-181 -404.02)"/><path class="cls-6" d="M525,563.68c-.12,0-.25,0-.25.11s.15.16.31.16.2,0,.2-.11-.11-.16-.26-.16Z" transform="translate(-181 -404.02)"/><path class="cls-8" d="M525,563.68c-.12,0-.25,0-.25.11s.15.16.31.16.2,0,.2-.11-.11-.16-.26-.16Z" transform="translate(-181 -404.02)"/><path class="cls-6" d="M526.78,564.49c.18,0,.19-.14.19-.25s.15-.21.15-.35v-.07l-.28.22c.12-.11.19-.19.19-.32s-.16-.15-.32-.15-.47.14-.47.3a.55.55,0,0,0,.22.42c.09.09.13.2.32.2Z" transform="translate(-181 -404.02)"/><path class="cls-8" d="M526.78,564.49c.18,0,.19-.14.19-.25s.15-.21.15-.35v-.07l-.28.22c.12-.11.19-.19.19-.32s-.16-.15-.32-.15-.47.14-.47.3a.55.55,0,0,0,.22.42c.09.09.13.2.32.2Z" transform="translate(-181 -404.02)"/><path class="cls-6" d="M533.28,563.35c.55.24.55.53,0,.88-.41-.34-.39-.71,0-.88Z" transform="translate(-181 -404.02)"/><path class="cls-8" d="M533.28,563.35c.55.24.55.53,0,.88-.41-.34-.39-.71,0-.88Z" transform="translate(-181 -404.02)"/><path class="cls-6" d="M541,563.72a.62.62,0,0,0-.47-.18c-.23,0-.52,0-.52.15s.23.36.56.36.43-.17.43-.33Z" transform="translate(-181 -404.02)"/><path class="cls-8" d="M541,563.72a.62.62,0,0,0-.47-.18c-.23,0-.52,0-.52.15s.23.36.56.36.43-.17.43-.33Z" transform="translate(-181 -404.02)"/><path class="cls-6" d="M549.13,563.41c-.09,0-.12-.06-.21-.06a.31.31,0,0,0-.34.32c0,.16.21.29.49.29s.32-.08.32-.18a.44.44,0,0,0-.26-.37Z" transform="translate(-181 -404.02)"/><path class="cls-8" d="M549.13,563.41c-.09,0-.12-.06-.21-.06a.31.31,0,0,0-.34.32c0,.16.21.29.49.29s.32-.08.32-.18a.44.44,0,0,0-.26-.37Z" transform="translate(-181 -404.02)"/><path class="cls-6" d="M560.21,562.11a.08.08,0,0,0,0-.05c0-.12-.2-.22-.42-.22s-.51,0-.51.18.29.23.56.23a.56.56,0,0,0,.35-.14Z" transform="translate(-181 -404.02)"/><path class="cls-8" d="M560.21,562.11a.08.08,0,0,0,0-.05c0-.12-.2-.22-.42-.22s-.51,0-.51.18.29.23.56.23a.56.56,0,0,0,.35-.14Z" transform="translate(-181 -404.02)"/><path class="cls-6" d="M566.86,561.16a.73.73,0,0,0-.56-.23c-.19,0-.35.08-.35.18s.12.11.2.18a.47.47,0,0,0,.36.18.33.33,0,0,0,.35-.31Z" transform="translate(-181 -404.02)"/><path class="cls-8" d="M566.86,561.16a.73.73,0,0,0-.56-.23c-.19,0-.35.08-.35.18s.12.11.2.18a.47.47,0,0,0,.36.18.33.33,0,0,0,.35-.31Z" transform="translate(-181 -404.02)"/><path class="cls-6" d="M565.55,561.17a.65.65,0,0,0-.5-.22c-.18,0-.35.07-.35.17s.1.16.2.26a.52.52,0,0,0,.4.2c.14,0,.25-.08.25-.16v-.25Z" transform="translate(-181 -404.02)"/><path class="cls-8" d="M565.55,561.17a.65.65,0,0,0-.5-.22c-.18,0-.35.07-.35.17s.1.16.2.26a.52.52,0,0,0,.4.2c.14,0,.25-.08.25-.16v-.25Z" transform="translate(-181 -404.02)"/><path class="cls-6" d="M564.28,561.18a.6.6,0,0,0-.53-.25c-.39,0-.76.15-.76.37s.33.18.59.18.71,0,.71-.21c0,0,0-.06,0-.09Z" transform="translate(-181 -404.02)"/><path class="cls-8" d="M564.28,561.18a.6.6,0,0,0-.53-.25c-.39,0-.76.15-.76.37s.33.18.59.18.71,0,.71-.21c0,0,0-.06,0-.09Z" transform="translate(-181 -404.02)"/><path class="cls-6" d="M568.56,561.19a.76.76,0,0,0-.51-.16c-.18,0-.36.06-.36.17s.25.2.48.2.41-.09.39-.21Z" transform="translate(-181 -404.02)"/><path class="cls-8" d="M568.56,561.19a.76.76,0,0,0-.51-.16c-.18,0-.36.06-.36.17s.25.2.48.2.41-.09.39-.21Z" transform="translate(-181 -404.02)"/><path class="cls-6" d="M571.19,561.39c-.08,0-.09-.07-.17-.07s-.22,0-.22.07.17.11.31.11.1,0,.1-.06,0-.05,0-.05Z" transform="translate(-181 -404.02)"/><path class="cls-8" d="M571.19,561.39c-.08,0-.09-.07-.17-.07s-.22,0-.22.07.17.11.31.11.1,0,.1-.06,0-.05,0-.05Z" transform="translate(-181 -404.02)"/><path class="cls-6" d="M555.67,559.73c-.2,0-.36.1-.36.22s.1.24.31.24.3-.09.3-.19,0-.27-.25-.27Z" transform="translate(-181 -404.02)"/><path class="cls-8" d="M555.67,559.73c-.2,0-.36.1-.36.22s.1.24.31.24.3-.09.3-.19,0-.27-.25-.27Z" transform="translate(-181 -404.02)"/><path class="cls-6" d="M518.06,564c-.32,0-.73,0-.73.22s0,.09,0,.15h.21c.3,0,.57-.11.57-.29,0,0,0-.06-.06-.08Z" transform="translate(-181 -404.02)"/><path class="cls-8" d="M518.06,564c-.32,0-.73,0-.73.22s0,.09,0,.15h.21c.3,0,.57-.11.57-.29,0,0,0-.06-.06-.08Z" transform="translate(-181 -404.02)"/><path class="cls-6" d="M520.45,564c1.51,0,.85.07,1.78,1a3.07,3.07,0,0,1-1.25-.21c.37,0,.5-.13.51-.24l-.42-.26c-.43.15-.23.74-.87.74s-.22-.17-.39-.29c-.16.12-.13.22-.16.42h-1.19a.79.79,0,0,1-.19-.94c.13.15.09.39.28.52,1.28-.27.68-.74,1.9-.74Z" transform="translate(-181 -404.02)"/><path class="cls-8" d="M520.45,564c1.51,0,.85.07,1.78,1a3.07,3.07,0,0,1-1.25-.21c.37,0,.5-.13.51-.24l-.42-.26c-.43.15-.23.74-.87.74s-.22-.17-.39-.29c-.16.12-.13.22-.16.42h-1.19a.79.79,0,0,1-.19-.94c.13.15.09.39.28.52,1.28-.27.68-.74,1.9-.74Z" transform="translate(-181 -404.02)"/><path class="cls-6" d="M542.79,559.79c-.2,0-.42,0-.42.15s.25.24.46.35c.12-.13.11-.5,0-.5Z" transform="translate(-181 -404.02)"/><path class="cls-8" d="M542.79,559.79c-.2,0-.42,0-.42.15s.25.24.46.35c.12-.13.11-.5,0-.5Z" transform="translate(-181 -404.02)"/><path class="cls-6" d="M545.08,559.78c-.16,0-.32.08-.35.18V560c.08.05.13.12.25.12s.31-.11.31-.22-.12-.1-.21-.15Z" transform="translate(-181 -404.02)"/><path class="cls-8" d="M545.08,559.78c-.16,0-.32.08-.35.18V560c.08.05.13.12.25.12s.31-.11.31-.22-.12-.1-.21-.15Z" transform="translate(-181 -404.02)"/><path class="cls-6" d="M553.42,559.93a.25.25,0,0,0-.13,0c-.07,0-.14,0-.14.06s.07.13.18.13.09-.09.09-.14Z" transform="translate(-181 -404.02)"/><path class="cls-8" d="M553.42,559.93a.25.25,0,0,0-.13,0c-.07,0-.14,0-.14.06s.07.13.18.13.09-.09.09-.14Z" transform="translate(-181 -404.02)"/><path class="cls-6" d="M548.49,559.89l1.74.16c0,.19,0,.41-.61.41s-.52-.14-1.13-.14v-.43Z" transform="translate(-181 -404.02)"/><path class="cls-8" d="M548.49,559.89l1.74.16c0,.19,0,.41-.61.41s-.52-.14-1.13-.14v-.43Z" transform="translate(-181 -404.02)"/><path class="cls-6" d="M551.18,560.76a7.64,7.64,0,0,0,1.91.29c.64,0,0-.29.64-.29a3.51,3.51,0,0,1,1.67.51c-.3.2-.9.22-3.68.21-.47.28-.45.71-.75,1-.33,0-.42-.16-.58-.28-.17.12-.38.37-.38.25l-.45-.26c-.2,0-.37.28-.73.45-.36-.33-.11-.59-.11-.95s-1-.45-1-.79a13.37,13.37,0,0,1,3.46-.17Z" transform="translate(-181 -404.02)"/><path class="cls-8" d="M551.18,560.76a7.64,7.64,0,0,0,1.91.29c.64,0,0-.29.64-.29a3.51,3.51,0,0,1,1.67.51c-.3.2-.9.22-3.68.21-.47.28-.45.71-.75,1-.33,0-.42-.16-.58-.28-.17.12-.38.37-.38.25l-.45-.26c-.2,0-.37.28-.73.45-.36-.33-.11-.59-.11-.95s-1-.45-1-.79a13.37,13.37,0,0,1,3.46-.17Z" transform="translate(-181 -404.02)"/><path class="cls-6" d="M555.67,561c.37-.05.63.25,1.27.25,1.58,0,3.58-.66,5.39.24-4.59-.09-5.29.4-6.66-.49Z" transform="translate(-181 -404.02)"/><path class="cls-8" d="M555.67,561c.37-.05.63.25,1.27.25,1.58,0,3.58-.66,5.39.24-4.59-.09-5.29.4-6.66-.49Z" transform="translate(-181 -404.02)"/><path class="cls-6" d="M535.84,564.25a2.53,2.53,0,0,1-1.48-.44v-.54a6.78,6.78,0,0,1,1.48,1Z" transform="translate(-181 -404.02)"/><path class="cls-8" d="M535.84,564.25a2.53,2.53,0,0,1-1.48-.44v-.54a6.78,6.78,0,0,1,1.48,1Z" transform="translate(-181 -404.02)"/><path class="cls-6" d="M532.85,564.3s0,0,0-.07a.19.19,0,0,0-.21-.18c-.2,0-.44,0-.44.13s.22.15.41.15.11,0,.19,0Z" transform="translate(-181 -404.02)"/><path class="cls-8" d="M532.85,564.3s0,0,0-.07a.19.19,0,0,0-.21-.18c-.2,0-.44,0-.44.13s.22.15.41.15.11,0,.19,0Z" transform="translate(-181 -404.02)"/><path class="cls-6" d="M552.92,562c-.18-.15-.24-.33-.56-.33h-.21v.07c0,.08.11.12.19.19a.93.93,0,0,0,.53.28.28.28,0,0,0,0-.21Z" transform="translate(-181 -404.02)"/><path class="cls-8" d="M552.92,562c-.18-.15-.24-.33-.56-.33h-.21v.07c0,.08.11.12.19.19a.93.93,0,0,0,.53.28.28.28,0,0,0,0-.21Z" transform="translate(-181 -404.02)"/><path class="cls-6" d="M554.22,561.89a.27.27,0,0,0-.22-.12c-.09,0-.15.05-.15.1a.22.22,0,0,0,.15.22c.12-.06.22-.1.22-.2Z" transform="translate(-181 -404.02)"/><path class="cls-8" d="M554.22,561.89a.27.27,0,0,0-.22-.12c-.09,0-.15.05-.15.1a.22.22,0,0,0,.15.22c.12-.06.22-.1.22-.2Z" transform="translate(-181 -404.02)"/><path class="cls-8" d="M556.94,553.2c.45.23.41.16,1.12,0s.12.33,1.73,0c.64-.13,6,0,6.64,0,.23,0,1.62,0,1.78.49l.74-.4c.34,0,.4,0,.82,0,.21.23.66,0,.83,0a.85.85,0,0,0,.88.06c1.56.1,2.91.1,3.33.1.68,0-.13.36.54.36s.54-.3,1.22-.3a12.55,12.55,0,0,1,3.16.34s.82.47.79,0l1.08-.22.54.27c-.23.39-.58.6.09.91-.07-.07.2-.4.24-.77h2.31l.49.3c.16-.14.13-.31.8-.31s1.68.78,2.67,1.08c.2-.13.74-.29,1.42-.62.09.23.05.49.27.62h1.79c.22-.13.22-.44.62-.62.77,1.43,3.8.47,5.71,1.67.17.28-1.14-.31-1.49.08s-.64-.31-1.32-.31-1.49.12-2.47.09c-.18,0,.22.78-.62.63-.38-.35.49-.46.15-.79-.24-.13-1,.08-1.15,0s.09.87-.14.84c-.79,0-.35-.62-.62-.57s-.06.34-.26.5c-.69.16,0-.69-1-.65-.2,0-.4.43,0,.6.83-.17.58.74.18.73-1-.14-.53.71-.9.7s-.11-.51-.54-.82c0-.3.45,0,.71-.14l0-.4c-.16,0-.91-.3-1.37-.31-.22.42.22,1.21.11,1.75-.52-.4-1.18-1-1.06-1.57-.52.06-.16.73-1,.61-.57-.15.76-.69,0-1.3-.61,0,0,.25-.08.46a7.69,7.69,0,0,1-1.08-.07s-.27-.16-.27.22.44.11.44.5c0,.17-.36.12-.43.28s.28.77-.23.61-.47-.53-.64-.66c-.47,0,.23.74-.78.65-.32,0-.37-.14-.67-.36-.07-.09,0-.18.74,0,.39.05,0-.38.15-.55a2.58,2.58,0,0,0,.88-.43c-.23-.1.34-.36-.33-.37-1.15,0-1.57,1.6-2.48,1.65-.64-.14-.13-1.22-.32-1.64-.7-.06-.39,1-.46,1.61a1.38,1.38,0,0,1-1.11,0,3.56,3.56,0,0,1-1-.94c-.15.13.07.79.07.79a22.18,22.18,0,0,1-4.73-.09c-1.62-.1-.7-.48-1.41-.78a5.38,5.38,0,0,1-2.15.79c-.64,0-1.35-.17-14.17-.07-.63,0-1.21-.14-1.9-.13a56.45,56.45,0,0,0-6.55.25,16.62,16.62,0,0,1-1.71.35c-.31,0-.44-.25-.86-.24-.12,0-.38.17-.51.17s-.36-.17-.54-.17-.3.14-.51.14-.78-.2-1.18-.19-.52.38-1.19.38-.16-.23-.83-.23-.93,0-1.31,0-.55.4-.84.45-.87-.28-1.05-.22,0,.22-.45.42l-.61-.35c-.17.13-.23.26-.9.26s-.23-.22-.91-.22-.59.38-1.26.38,0-.26-.69-.26c-.46,0-.61.32-.86.33s-.88-.29-1.07-.25-.45.35-1,.39c-.34,0-1.49-.26-2.17-.26-.34,0-.76.59-.86.59-.67,0-.24-.4-.91-.4s-.55.53-1.22.53-.43-.38-1.11-.38c-.27,0-.17.28-.43.4s-1.34,0-1.55.07.22.26.1.32a8.29,8.29,0,0,0,1.58,0c.12,0,.11.06.22,0s.31-.08.4-.09l.78,0,2.37-.1.5,0,.19-.09,1.08,0s1.09-.21,1.18-.21a2.43,2.43,0,0,0,.94.12l1.27,0s.21.14.26.14.06-.16.14-.16l1.58-.07c.85-.22,1.28-.24,1.27-.06-.3.4-.28.67,0,.82,0,0-.06.14.61.14a1.44,1.44,0,0,0,.94-.23,7.63,7.63,0,0,1-.81-.63,8.38,8.38,0,0,1,2.3-.37c.67,0,1.34.15,2,.18-.38.9.5.9,1.1.9a9.82,9.82,0,0,1,2.26-.16c.21-.13.44-.23.46-.34a8.05,8.05,0,0,0-2.67,0c-.05-.22-.28-.16-.58-.39.9-.21,2-.21,3.08-.37l5-.08c1.26-.13,1.53,0,.83.3a10.33,10.33,0,0,1-2.16.49c-.87.24-.62.37.73.37a21.7,21.7,0,0,0,5,0c.68,0,2.06-.31,2.73-.31s.54.16.91.18c-.94.27-.45,1.13-.88,1.06a10.58,10.58,0,0,1-1.11-.47,1.63,1.63,0,0,1-1,.14c0,.1.31.4.27.62a1.81,1.81,0,0,0-.9.17c-.37-.17,0-.93-.68-.93a6.65,6.65,0,0,0-4.65,1.39c-.33,0-.43-.17-.6-.31l-.55.31a8.34,8.34,0,0,0-2.11-.62,4.54,4.54,0,0,1-2.46.93,1.4,1.4,0,0,1-1.08-.46c-.51,0,.25.41-.18.44-1.08.21-.84-.59-1.12-.29s.08,1-.34,1.7c-.11-.23-.07-.33-.25-.46-.17.13-.13.39-.18.6-.84.14-1.28.08-1.3-.2.9-.44,1-1.14,1.35-1.4l-.45-.24c-2,.33-.78,1.08-1.53,1.85-.64-.16-.68-.48-1.25-.81,0-.19.55-.22.61-.49v-.24s-.35.08-.43.31c-.42-.18-1.65-1.13-1.91-.77a1.12,1.12,0,0,0-.47.59c-.37,0-.64-.13-2.16-.15-.38,0,.38,1.77,0,1.7-1.72,0-.78-1-2-1.53-.23,0-.38.27-.7.61-.34,0-.61-.3-1.28-.3s-2,.31-3,.44c-.93,0,.14,1.47,0,1.41-.41-.17-.38-.46-.84-.61-.2.13.12.38.07.6a1.53,1.53,0,0,1-.9-.29c-.17.13-.14.62-.81.62s-1.47-.2-1.63-.47c-.16.14-.12.24-.16.44a23.66,23.66,0,0,1-3.56,0l-.64.3a1,1,0,0,0-.72-.61c-.2.13.24.77-.43.77s-.13-.31-.81-.31c-2.22,0-22.08,2.33-25.38,2.6,0,0,.41.29-.29.72-.29.29-1,.06-.7-.24.53-.29.18-.49-.29-.38-1.77.23-.51.75-.95.86-1,.06-1-.56-1.28-.49-.29.34.53.69-1,.84-.32-.17-.24-.71-.43-.85-.75,0-1.08.25-1.09.82-.3.18-.32.4-1,.4s-.6-.31-1.28-.31a3.29,3.29,0,0,1-1.87.66,46.58,46.58,0,0,1-5.28.26c-3.78,0-3.65-2.71-3.65-3.73,0-2.68,1.38-8.26,9.87-8.26l3.49-.14,47.38-3.55,18.85-.55.62.13.71-.21,7.06,0Z" transform="translate(-181 -404.02)"/><path class="cls-9" d="M513.06,485.65v-.85q0-5.18-1.83-7.5t-6-2.32a8.88,8.88,0,0,0-6.86,2.67q-2.38,2.67-2.38,8Zm-17.37,4.92c0,5.5.73,9.44,2.19,11.79s4.27,3.53,8.23,3.53a13.78,13.78,0,0,0,8.23-2.41,12.54,12.54,0,0,0,4.76-7h2Q518.37,508,505,508a18,18,0,0,1-12.71-4.73,15.33,15.33,0,0,1-5.12-11.71,17.62,17.62,0,0,1,5.22-12.92,17.43,17.43,0,0,1,12.89-5.25q7,0,11.16,3.79t4.84,10.85h-25.6v2.5Z" transform="translate(-181 -404.02)"/><path class="cls-9" d="M561.39,508.13a12,12,0,0,1-7.4-2.07,6.85,6.85,0,0,1-2.65-5.59q0-5.78,5.85-9.13T574,488v-8.1q0-4.81-7.23-4.82a11.74,11.74,0,0,0-5.21,1q-2.1.94-2.1,1.89a24.56,24.56,0,0,1,1.73,1.81A3.18,3.18,0,0,1,562,482a3.51,3.51,0,0,1-1.09,2.67,3.59,3.59,0,0,1-2.56.95q-3.84,0-3.84-4.05,0-3.45,3.84-5.77t10.51-2.32c4.7,0,7.9.68,9.61,2.06s2.56,3.73,2.56,7.06v18.78a7.84,7.84,0,0,0,.27,2.5,1.62,1.62,0,0,0,1.56.68q2.46,0,3.2-3.18l1.46.17a6.9,6.9,0,0,1-2.38,4.82,7.59,7.59,0,0,1-5.12,1.72c-3.54,0-5.49-1.83-5.85-5.51a11.43,11.43,0,0,1-5.21,4.05,18.51,18.51,0,0,1-7.6,1.55Zm-3.1-9.82a6.28,6.28,0,0,0,1.83,4.66,6.83,6.83,0,0,0,5,1.8,10.46,10.46,0,0,0,6.32-1.8,5.8,5.8,0,0,0,2.56-5v-8.1q-7.69,0-11.71,2.16a6.79,6.79,0,0,0-4,6.28Z" transform="translate(-181 -404.02)"/><polygon class="cls-9" points="213.94 100.93 220.52 100.93 220.52 48.66 213.94 48.66 213.94 46.5 232.04 46.5 244.76 88.36 258.29 46.5 275.94 46.5 275.94 48.66 268.9 48.66 268.9 100.93 275.94 100.93 275.94 103.08 253.53 103.08 253.53 100.93 260.3 100.93 260.3 49.43 259.94 49.43 242.56 103.08 240.28 103.08 224.09 49.43 223.35 49.43 223.35 100.93 230.13 100.93 230.13 103.08 213.94 103.08 213.94 100.93 213.94 100.93"/><path class="cls-9" d="M477.88,485.65v-.85q0-5.18-1.83-7.5c-1.15-1.55-3.17-2.32-6-2.32a8.88,8.88,0,0,0-6.86,2.67q-2.39,2.67-2.38,8Zm-17.37,4.92c0,5.5.73,9.44,2.19,11.79s4.27,3.53,8.23,3.53a13.78,13.78,0,0,0,8.23-2.41,12.49,12.49,0,0,0,4.76-7h2Q483.19,508,469.84,508a18,18,0,0,1-12.72-4.73A15.33,15.33,0,0,1,452,491.6a17.62,17.62,0,0,1,5.22-12.92,17.43,17.43,0,0,1,12.89-5.25c4.69,0,8.42,1.26,11.16,3.79s4.42,6.08,4.84,10.85h-25.6v2.5Z" transform="translate(-181 -404.02)"/><path class="cls-9" d="M520.78,505.55,541.91,476h-8.78q-6.58,0-7.86,9.21h-2.2l.55-11h26.52v2l-21,28.94h9.69q7.22,0,9.24-10.17h2l-.55,12.15H520.78v-1.55Z" transform="translate(-181 -404.02)"/><path class="cls-9" d="M588.24,505.12h4.94V476h-4.94V474.2h1.65a63.41,63.41,0,0,0,10.24-.77V483q4-9.64,13.53-9.65a10.82,10.82,0,0,1,7.41,2.41,8.59,8.59,0,0,1,2.75,6.81v22.56h4.75v2H611.65v-2h5.21V482.29q0-6.36-5.66-6.37-4.4,0-7.69,4.14a15.89,15.89,0,0,0-3.2,10.16v14.9h4.85v2H588.24v-2Z" transform="translate(-181 -404.02)"/><path class="cls-9" d="M654.07,504.94h6.59V452.67h-6.59v-2.15h23q21.39,0,21.39,13.09a11.43,11.43,0,0,1-3.84,8.78q-3.75,3.45-10.88,4.57v.34q7.88,1.21,12.25,5.17a11.72,11.72,0,0,1,4.49,9.13,13.08,13.08,0,0,1-6.13,11.45q-6.14,4.05-17.65,4.05H654.07v-2.16Zm22.31-28.67q7.59,0,10.25-2.67t2.65-9.73c0-4.43-1-7.38-2.93-8.87S681,452.67,676,452.67h-6.4v23.6Zm-6.76,28.67h8q7.59,0,10.25-2.66T690.56,492q0-7.41-3.11-10.51t-10.7-3.1h-7.13v26.52Z" transform="translate(-181 -404.02)"/><path class="cls-9" d="M710.39,508.13a12,12,0,0,1-7.41-2.07,6.85,6.85,0,0,1-2.65-5.59q0-5.78,5.85-9.13T723,488v-8.1q0-4.81-7.22-4.82a11.75,11.75,0,0,0-5.22,1q-2.1.94-2.1,1.89c.61.58,1.19,1.18,1.74,1.81A3.18,3.18,0,0,1,711,482a3.51,3.51,0,0,1-1.1,2.67,3.59,3.59,0,0,1-2.56.95q-3.84,0-3.84-4.05,0-3.45,3.84-5.77t10.52-2.32c4.69,0,7.89.68,9.6,2.06s2.56,3.73,2.56,7.06v18.78a7.48,7.48,0,0,0,.28,2.5,1.6,1.6,0,0,0,1.55.68q2.48,0,3.2-3.18l1.46.17a6.89,6.89,0,0,1-2.37,4.82A7.6,7.6,0,0,1,729,508c-3.53,0-5.48-1.83-5.85-5.51a11.38,11.38,0,0,1-5.21,4.05,18.5,18.5,0,0,1-7.59,1.55Zm-3.11-9.82a6.28,6.28,0,0,0,1.83,4.66,6.85,6.85,0,0,0,5,1.8,10.45,10.45,0,0,0,6.31-1.8,5.78,5.78,0,0,0,2.56-5v-8.1q-7.68,0-11.7,2.16a6.79,6.79,0,0,0-4,6.28Z" transform="translate(-181 -404.02)"/><path class="cls-9" d="M736.93,505.12h4.94V476h-4.94V474.2h1.65a63.41,63.41,0,0,0,10.24-.77V483q4-9.64,13.53-9.65a10.82,10.82,0,0,1,7.41,2.41,8.59,8.59,0,0,1,2.74,6.81v22.56h4.76v2H760.34v-2h5.21V482.29q0-6.36-5.66-6.37-4.39,0-7.69,4.14a15.89,15.89,0,0,0-3.2,10.16v14.9h4.85v2H736.93v-2Z" transform="translate(-181 -404.02)"/><path class="cls-9" d="M784.25,452.24h-4.76v-1.72l11.89-.86v55.46h5.12v2H779.22v-2h5V452.24Zm23,23.86h-6v-1.9h15v1.9H810.5l-12.44,9.81,17.28,19.21H819v2H801.71v-2h4.67l-14.73-16.88L807.2,476.1Z" transform="translate(-181 -404.02)"/><path class="cls-9" d="M455.18,538.1a6.6,6.6,0,0,1-6.76,5.42,8.1,8.1,0,0,1-6-2.46,8.63,8.63,0,0,1-2.4-6.22,7.74,7.74,0,0,1,2.62-6.08,8,8,0,0,1,5.44-2.36,6.61,6.61,0,0,1,5.06,2.22,8.29,8.29,0,0,1,2.09,5.91H443.67l-.09,1.8q0,3.43,1.18,5a4.7,4.7,0,0,0,4,1.57,5.49,5.49,0,0,0,3.57-1.25,6.45,6.45,0,0,0,2.13-3.55Zm-3.4-4.13,0-1.84a7.49,7.49,0,0,0-.79-4,3.32,3.32,0,0,0-3-1.18,3.6,3.6,0,0,0-3.31,1.71,10.38,10.38,0,0,0-1.05,5.31Z" transform="translate(-181 -404.02)"/><path class="cls-9" d="M400.82,542.45h4.23V519.07l-.65,0a7.32,7.32,0,0,0-5.84,2.36q-2,2.37-2,7.19h-.48V518.41H418v10.17h-.52q-.62-5.34-2.44-7.43t-6.19-2.08l-.09,23.38h4.23v.66H400.82v-.66Z" transform="translate(-181 -404.02)"/><path class="cls-9" d="M431.77,527.27a4.69,4.69,0,0,0-3.8,2.12,9.07,9.07,0,0,0-1.56,5.52v7.64h3v.56h-9.29v-.56h3.05V519h-3.05v-.59h6.28v12.78a6.78,6.78,0,0,1,2.35-3.51,6.17,6.17,0,0,1,3.84-1.28,4.94,4.94,0,0,1,3.7,1.42,5.47,5.47,0,0,1,1.4,4v10.73h3v.56h-9.28v-.56h3.05V530.63q0-3.36-2.7-3.36Z" transform="translate(-181 -404.02)"/><path class="cls-9" d="M484.29,542.45v.66H472.17v-.66h4.23V519.07h-4.23v-.66H485a11.33,11.33,0,0,1,6.88,1.91,5.67,5.67,0,0,1,2.66,4.83q0,5.94-9.85,5.94h-4.66v11.36Zm-.13-12q4.05,0,5.18-1t1.18-4.82c0-2.07-.36-3.49-1.09-4.28s-2.25-1.21-4.66-1.21h-4.71v11.36Z" transform="translate(-181 -404.02)"/><path class="cls-9" d="M525.88,538.1a6.58,6.58,0,0,1-6.75,5.42,8.07,8.07,0,0,1-6-2.46,8.63,8.63,0,0,1-2.4-6.22,7.76,7.76,0,0,1,2.61-6.08,8.06,8.06,0,0,1,5.45-2.36,6.61,6.61,0,0,1,5.06,2.22,8.29,8.29,0,0,1,2.09,5.91H514.38l-.09,1.8a8.43,8.43,0,0,0,1.17,5,4.72,4.72,0,0,0,4,1.57,5.5,5.5,0,0,0,3.58-1.25,6.5,6.5,0,0,0,2.13-3.55Zm-3.4-4.13,0-1.84a7.49,7.49,0,0,0-.79-4,3.32,3.32,0,0,0-3-1.18,3.61,3.61,0,0,0-3.32,1.71,10.5,10.5,0,0,0-1,5.31Z" transform="translate(-181 -404.02)"/><path class="cls-9" d="M566.66,542.55v.56h-9.29v-.56h3V527.33h-3v-.55h6.24v15.77ZM562.17,519a2.22,2.22,0,0,1,1.48.49,1.36,1.36,0,0,1,.61,1.14,1.47,1.47,0,0,1-.61,1.19,2.33,2.33,0,0,1-1.48.48,2.27,2.27,0,0,1-1.44-.48,1.47,1.47,0,0,1-.61-1.19,1.39,1.39,0,0,1,.57-1.14,2.31,2.31,0,0,1,1.48-.49Z" transform="translate(-181 -404.02)"/><path class="cls-9" d="M581,538.1a6.6,6.6,0,0,1-6.76,5.42,8.1,8.1,0,0,1-6-2.46,8.63,8.63,0,0,1-2.39-6.22,7.73,7.73,0,0,1,2.61-6.08A8,8,0,0,1,574,526.4a6.59,6.59,0,0,1,5,2.22,8.24,8.24,0,0,1,2.09,5.91H569.5l-.09,1.8a8.42,8.42,0,0,0,1.18,5,4.71,4.71,0,0,0,4,1.57,5.47,5.47,0,0,0,3.57-1.25,6.46,6.46,0,0,0,2.14-3.55Zm-3.4-4.13,0-1.84a7.6,7.6,0,0,0-.78-4,3.32,3.32,0,0,0-3-1.18,3.6,3.6,0,0,0-3.32,1.71,10.5,10.5,0,0,0-1,5.31Z" transform="translate(-181 -404.02)"/><path class="cls-9" d="M507.87,526.4a3.12,3.12,0,0,1,2.05.69,2.13,2.13,0,0,1,.87,1.77,1.59,1.59,0,0,1-.53,1.22,2,2,0,0,1-1.43.49,2.12,2.12,0,0,1-1.31-.39,1.32,1.32,0,0,1-.48-1,1.28,1.28,0,0,1,.44-1,1.75,1.75,0,0,1,1.21-.42,2.11,2.11,0,0,1,1.31.46,2.45,2.45,0,0,0-2.35-1.19,4.09,4.09,0,0,0-3.4,2.19,10.27,10.27,0,0,0-1.44,5.73v7.68h3.05v.56h-9.28v-.56h3V527.33h-3v-.55h6.06l.17,4c1-2.91,2.7-4.37,5.06-4.37Z" transform="translate(-181 -404.02)"/><path class="cls-9" d="M546.12,543.11h-9.28v-.56h3V530.63c0-2.24-.83-3.37-2.48-3.37a4.25,4.25,0,0,0-3.49,2.12,9.55,9.55,0,0,0-1.44,5.53v7.64h3.06v.56H526.2v-.56h3V527.34h-3v-.56h6.06l.17,4.24a7.15,7.15,0,0,1,2.23-3.41,5.35,5.35,0,0,1,3.44-1.21,4.56,4.56,0,0,1,3.23,1.32,5.45,5.45,0,0,1,1.7,3.44,7.25,7.25,0,0,1,2.22-3.51,5.31,5.31,0,0,1,3.48-1.25,4.75,4.75,0,0,1,3.67,1.42,5.52,5.52,0,0,1,1.35,4v10.73h3v.56h-9.28v-.56h3V530.63c0-2.24-.84-3.37-2.53-3.37a4.15,4.15,0,0,0-3.44,2.09,9.61,9.61,0,0,0-1.44,5.56v7.64h3v.56Z" transform="translate(-181 -404.02)"/><path class="cls-9" d="M592.82,526.4a3.1,3.1,0,0,1,2,.69,2.11,2.11,0,0,1,.87,1.77,1.58,1.58,0,0,1-.52,1.22,2.06,2.06,0,0,1-1.44.49,2.14,2.14,0,0,1-1.31-.39,1.41,1.41,0,0,1,0-2.08,1.79,1.79,0,0,1,1.22-.42,2.11,2.11,0,0,1,1.31.46A2.46,2.46,0,0,0,592.6,527a4.07,4.07,0,0,0-3.39,2.19,10.27,10.27,0,0,0-1.44,5.73v7.68h3.05v.56h-9.28v-.56h3V527.33h-3v-.55h6.05l.18,4c1-2.91,2.7-4.37,5.05-4.37Z" transform="translate(-181 -404.02)"/><path class="cls-9" d="M652.05,534.91a2.12,2.12,0,0,0-1.48,1.32,10,10,0,0,0-.35,3.09,6.16,6.16,0,0,0,.43,2.74,1.8,1.8,0,0,0,1.75.8,4.08,4.08,0,0,0,3.13-1.59,6,6,0,0,0,1.44-4.14v-3.57a9.93,9.93,0,0,1-2.13.72q-1.3.32-2.79.63Zm-.13,8.61a5.17,5.17,0,0,1-3.66-1.21,4.44,4.44,0,0,1-1.31-3.44,4,4,0,0,1,3.62-4.31l4.49-.9a7.18,7.18,0,0,0,1.91-.77v-3.13c0-1.82-1.16-2.74-3.48-2.74a4.15,4.15,0,0,0-3.92,2,1.93,1.93,0,0,1,.73-.18,1.57,1.57,0,0,1,1.14.42,1.2,1.2,0,0,1,.48,1,1.36,1.36,0,0,1-.53,1.12,2.25,2.25,0,0,1-1.43.41,2,2,0,0,1-1.35-.48,1.8,1.8,0,0,1-.53-1.33,2.94,2.94,0,0,1,1.75-2.46,8.93,8.93,0,0,1,4.53-1,6.48,6.48,0,0,1,4.22,1.28,4.27,4.27,0,0,1,1.62,3.58v9.93c0,1,.39,1.57,1.18,1.57a1.57,1.57,0,0,0,1.35-.8,4,4,0,0,0,.56-2.29H664q0,3.86-3.22,3.85a3.66,3.66,0,0,1-2.62-.94,3.47,3.47,0,0,1-1-2.57v-.17a8.17,8.17,0,0,1-2.31,2.78,5.08,5.08,0,0,1-3,.9Z" transform="translate(-181 -404.02)"/><path class="cls-9" d="M705,542.55v.56h-9.28v-.56h3V527.33h-3v-.55H702v15.77ZM700.53,519a2.25,2.25,0,0,1,1.49.49,1.37,1.37,0,0,1,.6,1.14,1.49,1.49,0,0,1-.6,1.19,2.34,2.34,0,0,1-1.49.48,2.27,2.27,0,0,1-1.44-.48,1.5,1.5,0,0,1-.61-1.19,1.39,1.39,0,0,1,.57-1.14,2.33,2.33,0,0,1,1.48-.49Z" transform="translate(-181 -404.02)"/><polygon class="cls-9" points="442.84 138.43 442.84 139.09 430.72 139.09 430.72 138.43 434.95 138.43 434.95 115.05 430.72 115.05 430.72 114.39 442.84 114.39 442.84 115.05 438.61 115.05 438.61 138.43 442.84 138.43 442.84 138.43"/><path class="cls-9" d="M632.42,542.93a4.25,4.25,0,0,0,2.79-.9,2.81,2.81,0,0,0,1.09-2.26,2.66,2.66,0,0,0-1.26-2.36,26,26,0,0,0-4.41-2.16,21.69,21.69,0,0,1-4.31-2.15,3.11,3.11,0,0,1-1.13-2.6,3.62,3.62,0,0,1,1.44-3,5.61,5.61,0,0,1,3.61-1.14,7,7,0,0,1,4.58,1.91l2.31-1.53.09,6.08h-.48a8.8,8.8,0,0,0-2.57-4.31,5.86,5.86,0,0,0-3.93-1.56,3.53,3.53,0,0,0-2.13.59,1.78,1.78,0,0,0-.83,1.53,2.28,2.28,0,0,0,1,2,29.85,29.85,0,0,0,4.05,1.88,15.45,15.45,0,0,1,4.45,2.39,3.86,3.86,0,0,1,1.44,3.13,4.51,4.51,0,0,1-1.66,3.58,6.05,6.05,0,0,1-4.1,1.42,7.11,7.11,0,0,1-5.23-2.26l-2,1.92h-.48v-6.74h.48a10.29,10.29,0,0,0,2.88,4.82,6.36,6.36,0,0,0,4.31,1.67Z" transform="translate(-181 -404.02)"/><polygon class="cls-9" points="456.63 114.98 456.63 114.39 462.9 114.39 462.9 138.54 465.91 138.54 465.91 139.09 456.63 139.09 456.63 138.54 459.68 138.54 459.68 114.98 456.63 114.98 456.63 114.98"/><path class="cls-9" d="M684.13,543.11h-9.29v-.56h3V530.63c0-2.24-.83-3.37-2.48-3.37a4.25,4.25,0,0,0-3.49,2.12,9.55,9.55,0,0,0-1.44,5.53v7.64h3v.56h-9.28v-.56h3V527.34h-3v-.56h6.06l.17,4.24a7.15,7.15,0,0,1,2.23-3.41,5.35,5.35,0,0,1,3.44-1.21,4.58,4.58,0,0,1,3.23,1.32,5.39,5.39,0,0,1,1.69,3.44,7.33,7.33,0,0,1,2.23-3.51,5.28,5.28,0,0,1,3.48-1.25,4.71,4.71,0,0,1,3.66,1.42,5.52,5.52,0,0,1,1.35,4v10.73h3v.56h-9.28v-.56h3V530.63c0-2.24-.84-3.37-2.53-3.37a4.15,4.15,0,0,0-3.44,2.09,9.61,9.61,0,0,0-1.44,5.56v7.64h3v.56Z" transform="translate(-181 -404.02)"/><path class="cls-9" d="M712.06,543.52a7.72,7.72,0,0,1-5.66-2.46A8.39,8.39,0,0,1,704,535a7.65,7.65,0,0,1,2.74-6.36,9.16,9.16,0,0,1,5.76-2.22,5.42,5.42,0,0,1,3.62,1.21,3.62,3.62,0,0,1,1.48,2.92c0,1.44-.76,2.15-2.27,2.15a2.25,2.25,0,0,1-1.48-.45,1.43,1.43,0,0,1-.57-1.18,1.39,1.39,0,0,1,.57-1.14,2.11,2.11,0,0,1,1.44-.49,2.41,2.41,0,0,1,1.57.63,3.67,3.67,0,0,0-1.53-2.3,4.88,4.88,0,0,0-2.88-.8c-2,0-3.31.66-3.92,2s-.91,3.55-.91,6.74a11.93,11.93,0,0,0,1,5.56c.64,1.11,1.84,1.67,3.61,1.67a6.13,6.13,0,0,0,4.32-1.6,5.7,5.7,0,0,0,1.74-4.41h.7a6.24,6.24,0,0,1-2,4.86,7.08,7.08,0,0,1-4.93,1.77Z" transform="translate(-181 -404.02)"/><path class="cls-9" d="M735.67,542.45h4.23V519.07h-4.23v-.66h13.91a9.62,9.62,0,0,1,5.71,1.56,4.77,4.77,0,0,1,2.22,4,4.65,4.65,0,0,1-2.09,3.89,11.7,11.7,0,0,1-5.89,1.91q9.15.81,9.15,6.39a5.91,5.91,0,0,1-2.61,5.11c-1.72,1.21-4.21,1.81-7.5,1.81h-12.9v-.66Zm7.89-13h4.23a7.08,7.08,0,0,0,4.53-1.18,4.56,4.56,0,0,0,1.48-3.75q0-3-1.26-4.2c-.82-.84-2.3-1.25-4.45-1.25h-4.53v10.38Zm4.32,13c2.41,0,4.16-.54,5.27-1.6s1.65-2.81,1.65-5.18a5,5,0,0,0-1.69-4.2c-1.14-.9-2.94-1.36-5.41-1.36h-4.14v12.34Z" transform="translate(-181 -404.02)"/><path class="cls-9" d="M764.68,534.91a2.12,2.12,0,0,0-1.48,1.32,10,10,0,0,0-.35,3.09,6,6,0,0,0,.44,2.74,1.77,1.77,0,0,0,1.74.8,4.12,4.12,0,0,0,3.14-1.59,6,6,0,0,0,1.44-4.14v-3.57a10.23,10.23,0,0,1-2.14.72q-1.31.32-2.79.63Zm-.13,8.61a5.17,5.17,0,0,1-3.66-1.21,4.44,4.44,0,0,1-1.31-3.44,4,4,0,0,1,3.62-4.31l4.49-.9a7.36,7.36,0,0,0,1.92-.77v-3.13c0-1.82-1.17-2.74-3.49-2.74a4.17,4.17,0,0,0-3.93,2,2,2,0,0,1,.75-.18,1.56,1.56,0,0,1,1.13.42,1.2,1.2,0,0,1,.48,1,1.33,1.33,0,0,1-.53,1.12,2.25,2.25,0,0,1-1.43.41,2,2,0,0,1-1.35-.48,1.8,1.8,0,0,1-.53-1.33,2.94,2.94,0,0,1,1.75-2.46,8.93,8.93,0,0,1,4.53-1,6.53,6.53,0,0,1,4.23,1.28,4.29,4.29,0,0,1,1.61,3.58v9.93c0,1,.39,1.57,1.18,1.57a1.57,1.57,0,0,0,1.35-.8,3.91,3.91,0,0,0,.56-2.29h.74q0,3.86-3.22,3.85a3.62,3.62,0,0,1-2.61-.94,3.48,3.48,0,0,1-1-2.57v-.17a8.17,8.17,0,0,1-2.31,2.78,5.08,5.08,0,0,1-3,.9Z" transform="translate(-181 -404.02)"/><path class="cls-9" d="M788.54,527.27a4.66,4.66,0,0,0-3.79,2.12,9,9,0,0,0-1.57,5.52v7.64h3.05v.56H777v-.56h3V527.33h-3v-.55h6l.18,4.41a6.84,6.84,0,0,1,2.35-3.51,6.26,6.26,0,0,1,3.88-1.28,5,5,0,0,1,3.71,1.42,5.47,5.47,0,0,1,1.39,4v10.73h3v.56h-9.28v-.56h3V530.63q0-3.36-2.7-3.36Z" transform="translate(-181 -404.02)"/><path class="cls-9" d="M798.21,519v-.59h6.27V535.6l5.71-5.45a1.77,1.77,0,0,0,.66-1.25c0-1-.87-1.56-2.62-1.56l-.13-.56h8.33v.56q-2.14,0-4.84,2.53L809,532.3l6.67,10.25h2.18v.56h-8.28v-.56h2.49l-5.36-8.2-2.23,2v6.15h3v.56h-9.28v-.56h3V519Z" transform="translate(-181 -404.02)"/></svg>