<svg width="398" height="395" viewBox="0 0 398 395" fill="none" xmlns="http://www.w3.org/2000/svg">
<g clip-path="url(#clip0_4004_227)">
<path d="M342.67 333.942C334.728 342.303 327.214 347.696 321.277 351.955C251.488 402.034 168.909 387.436 151.358 383.871C125.441 378.606 75.3454 368.431 39.1284 325.836C-15.6675 261.393 -7.13483 159.864 35.3678 92.8434C43.143 80.5843 84.2096 12.5427 167.677 1.63087C218.191 -4.97268 277.074 8.34587 319.717 44.0736C409.225 119.07 402.853 270.576 342.67 333.942Z" fill="white"/>
<path d="M111.195 25.3689C111.028 25.3802 110.859 25.3111 110.749 25.17C110.333 24.6311 109.897 24.0979 109.457 23.583C109.271 23.3657 109.296 23.0384 109.515 22.8522C109.732 22.6674 110.059 22.6928 110.246 22.9087C110.697 23.4363 111.141 23.9836 111.569 24.5338C111.744 24.7595 111.703 25.0854 111.477 25.2603C111.392 25.3252 111.295 25.3605 111.196 25.3675L111.195 25.3689Z" fill="#D1D1D1"/>
<path d="M79.7531 95.5971C78.9702 95.6605 78.1619 95.6859 77.3734 95.6986C77.087 95.7029 76.8515 95.4743 76.8472 95.188C76.843 94.9016 77.0743 94.673 77.3579 94.6618C78.128 94.6505 78.9222 94.6124 79.6811 94.563C80.2439 94.5235 80.8166 94.4727 81.3879 94.4092C81.6757 94.357 81.9282 94.5828 81.9592 94.8677C81.9903 95.1527 81.7857 95.408 81.5008 95.4391C80.9168 95.504 80.3286 95.5562 79.7516 95.5956L79.7531 95.5971ZM88.0022 94.2117C87.7596 94.2287 87.5325 94.0721 87.4662 93.8294C87.3914 93.5529 87.555 93.2694 87.8315 93.1946C89.0869 92.8575 90.3466 92.4568 91.5738 92.0054L91.681 91.9659C91.949 91.8671 92.2467 92.0054 92.3454 92.2734C92.4442 92.5415 92.3073 92.8405 92.0379 92.9393L91.9307 92.9788C90.6739 93.4415 89.3846 93.8506 88.0995 94.1962C88.0671 94.2047 88.0332 94.2103 88.0008 94.2132L88.0022 94.2117ZM97.9257 90.2011C97.7311 90.2152 97.5378 90.1178 97.4363 89.9359C97.298 89.6862 97.3883 89.3702 97.638 89.2319C98.8144 88.5788 99.9697 87.8649 101.073 87.1088C101.308 86.948 101.631 87.0072 101.792 87.2442C101.954 87.4798 101.894 87.8029 101.658 87.9651C100.528 88.7396 99.3448 89.4703 98.1401 90.1376C98.071 90.1757 97.9977 90.1968 97.9243 90.2011H97.9257ZM106.571 83.8966C106.422 83.9065 106.268 83.8529 106.158 83.7344C105.962 83.5256 105.972 83.1983 106.181 83.0022C107.157 82.0852 108.102 81.1104 108.989 80.1032C109.178 79.8888 109.505 79.869 109.72 80.0566C109.934 80.2457 109.955 80.573 109.766 80.7888C108.858 81.8186 107.89 82.8174 106.89 83.7569C106.8 83.8416 106.687 83.8881 106.571 83.8966ZM113.41 75.6665C113.303 75.6735 113.193 75.6481 113.095 75.5861C112.854 75.4309 112.785 75.1107 112.939 74.8708C113.662 73.7437 114.341 72.5672 114.959 71.3737C115.09 71.1198 115.402 71.0196 115.657 71.1522C115.911 71.2834 116.011 71.5966 115.878 71.8505C115.248 73.0722 114.551 74.2755 113.81 75.4309C113.719 75.5748 113.568 75.6566 113.41 75.6679V75.6665ZM118.046 66.0186C117.98 66.0228 117.912 66.0158 117.845 65.9918C117.574 65.9001 117.429 65.6067 117.519 65.3358C117.949 64.0648 118.323 62.7585 118.63 61.4535C118.697 61.1742 118.976 61.0035 119.254 61.0684C119.533 61.1347 119.705 61.414 119.639 61.692C119.323 63.0279 118.941 64.3653 118.501 65.6673C118.432 65.8719 118.248 66.0045 118.045 66.0186H118.046ZM120.203 55.5342C120.178 55.5356 120.152 55.5356 120.126 55.5342C119.841 55.5116 119.628 55.2619 119.65 54.977C119.757 53.6368 119.801 52.2783 119.781 50.9395C119.777 50.6531 120.006 50.4091 120.292 50.4133C120.578 50.4091 120.814 50.6376 120.818 50.9226C120.838 52.2952 120.793 53.6861 120.684 55.0574C120.663 55.3169 120.456 55.5158 120.205 55.5328L120.203 55.5342ZM119.726 44.8367C119.464 44.8551 119.226 44.6717 119.181 44.4065C118.956 43.0846 118.666 41.7571 118.317 40.4607C118.244 40.1842 118.408 39.9007 118.683 39.8259C118.961 39.7511 119.244 39.9162 119.317 40.1913C119.674 41.5187 119.972 42.8787 120.202 44.2315C120.25 44.5137 120.059 44.7817 119.777 44.8297C119.76 44.8325 119.743 44.8339 119.725 44.8353L119.726 44.8367ZM116.657 34.5794C116.445 34.5935 116.237 34.4765 116.146 34.2705C115.606 33.0375 115.004 31.8201 114.356 30.6506C114.218 30.4009 114.308 30.0849 114.558 29.9467C114.808 29.8098 115.124 29.8973 115.262 30.1484C115.925 31.3447 116.541 32.5917 117.094 33.8543C117.209 34.1167 117.09 34.4214 116.828 34.5371C116.771 34.5625 116.713 34.5752 116.656 34.5794H116.657Z" fill="#D1D1D1"/>
<path d="M70.7529 95.2853C70.7176 95.2881 70.681 95.2853 70.6443 95.2811C69.9573 95.1851 69.2619 95.0709 68.5778 94.9425C68.2971 94.8903 68.1109 94.6195 68.1645 94.3373C68.2167 94.0552 68.4875 93.8675 68.7696 93.924C69.4397 94.0495 70.1181 94.161 70.7896 94.2541C71.0731 94.2936 71.2706 94.556 71.2311 94.8381C71.1973 95.085 70.9941 95.267 70.7543 95.2839L70.7529 95.2853Z" fill="#D1D1D1"/>
<path d="M41.3085 77.5173C41.135 77.5286 40.9601 77.4538 40.8514 77.3029C40.4494 76.7414 40.053 76.1588 39.6708 75.5705C39.5156 75.3307 39.5847 75.0091 39.8245 74.8539C40.0657 74.6987 40.3859 74.7678 40.5411 75.0077C40.9135 75.5832 41.3014 76.1517 41.6936 76.6991C41.86 76.9319 41.8064 77.2549 41.5751 77.4214C41.4947 77.4792 41.4016 77.5103 41.3099 77.5173H41.3085Z" fill="#D1D1D1"/>
<path d="M37.0176 70.0702C36.8074 70.0843 36.6015 69.97 36.5098 69.7669C36.0739 68.8005 35.6662 67.806 35.2995 66.81C35.1993 66.5349 35.1006 66.2613 35.0061 65.9876C34.913 65.7167 35.0555 65.4219 35.3263 65.3288C35.5985 65.2343 35.8919 65.3782 35.985 65.649C36.0781 65.917 36.1741 66.1851 36.2714 66.4531C36.6297 67.4265 37.0275 68.3985 37.4535 69.3423C37.5705 69.6032 37.4549 69.9108 37.1939 70.0279C37.1361 70.0547 37.0768 70.0688 37.0162 70.073L37.0176 70.0702ZM33.8593 60.0217C33.5997 60.04 33.3642 59.8609 33.3148 59.5999C33.0679 58.271 32.8789 56.9153 32.7562 55.568C32.7294 55.2831 32.9396 55.0306 33.2245 55.0052C33.4996 54.984 33.7619 55.1886 33.7873 55.4735C33.9072 56.7883 34.0906 58.113 34.3332 59.4094C34.3854 59.6902 34.2006 59.961 33.9185 60.0132C33.8988 60.0174 33.879 60.0188 33.8593 60.0203V60.0217ZM33.2062 49.5062C33.1836 49.5076 33.161 49.5076 33.1385 49.5062C32.8521 49.4893 32.6349 49.2438 32.6518 48.9574C32.7322 47.6088 32.8775 46.2475 33.0834 44.9115C33.1272 44.628 33.3938 44.4347 33.6745 44.4784C33.9566 44.5222 34.1513 44.786 34.1075 45.0695C33.9072 46.373 33.7648 47.7019 33.6858 49.0209C33.6703 49.2833 33.4615 49.4893 33.2048 49.5062H33.2062ZM35.1048 39.1459C35.0428 39.1501 34.9779 39.1431 34.9144 39.1233C34.6407 39.0387 34.4884 38.7481 34.5744 38.4744C34.9765 37.1836 35.4434 35.897 35.9625 34.65C36.0725 34.3862 36.3744 34.2592 36.6396 34.3706C36.9033 34.4807 37.0289 34.784 36.9189 35.0478C36.4125 36.2652 35.9568 37.5222 35.5633 38.782C35.497 38.9922 35.3108 39.1304 35.1048 39.1445V39.1459ZM39.4241 29.5404C39.3211 29.5474 39.2167 29.5248 39.1208 29.467C38.8753 29.3189 38.7964 29.0015 38.9445 28.756C39.6413 27.6006 40.4016 26.4622 41.2042 25.3731C41.3735 25.1432 41.6979 25.0938 41.9279 25.2631C42.1578 25.4324 42.2072 25.7568 42.0379 25.9882C41.255 27.0519 40.513 28.1621 39.8317 29.2907C39.7415 29.4416 39.5863 29.5291 39.4241 29.5404ZM45.9128 21.2468C45.7689 21.2566 45.6208 21.2073 45.5108 21.0972C45.3091 20.8941 45.3091 20.5668 45.5108 20.3651C46.4643 19.4114 47.4743 18.4888 48.5153 17.6255C48.7354 17.4435 49.0627 17.4731 49.2446 17.6932C49.428 17.9133 49.397 18.2391 49.1769 18.4225C48.1613 19.2661 47.1739 20.1662 46.2429 21.0972C46.1512 21.1889 46.0327 21.2397 45.9128 21.2482V21.2468ZM54.2057 14.7603C54.0181 14.773 53.8291 14.6827 53.7261 14.5106C53.578 14.2651 53.657 13.9477 53.9024 13.7996C55.0591 13.1027 56.2637 12.4524 57.4797 11.8655C57.7378 11.74 58.0467 11.85 58.1709 12.1068C58.295 12.3649 58.1878 12.6739 57.9296 12.798C56.7405 13.3722 55.5655 14.007 54.4356 14.687C54.3623 14.7307 54.2833 14.7547 54.2043 14.7603H54.2057ZM63.8146 10.4534C63.5805 10.4689 63.3576 10.3236 63.2843 10.0908C63.1996 9.81717 63.352 9.52797 63.6256 9.44192C64.9163 9.03986 66.2409 8.69283 67.5612 8.41209C67.8391 8.35425 68.1156 8.53059 68.1762 8.81133C68.2355 9.09065 68.0577 9.36574 67.777 9.4264C66.4863 9.70149 65.1928 10.0401 63.9331 10.4322C63.8936 10.4449 63.8541 10.452 63.8146 10.4548V10.4534ZM78.1971 8.50943C78.1787 8.50943 78.1618 8.51084 78.1435 8.50943C76.8231 8.46429 75.4859 8.48122 74.1712 8.55881C73.8863 8.57574 73.6408 8.35849 73.6239 8.07211C73.607 7.78856 73.8228 7.5445 74.1049 7.52475C74.1063 7.52475 74.1078 7.52475 74.1078 7.52475C75.4563 7.44434 76.826 7.42742 78.1787 7.47397C78.4651 7.48384 78.688 7.72367 78.6795 8.01004C78.671 8.27808 78.4594 8.49109 78.1985 8.50943H78.1971Z" fill="#D1D1D1"/>
<path d="M86.7365 9.65217C86.6858 9.65499 86.6336 9.65217 86.5814 9.63947C85.9226 9.48288 85.2498 9.3404 84.5797 9.21485C84.299 9.16265 84.1128 8.89179 84.1664 8.61106C84.2186 8.33033 84.4895 8.14129 84.7702 8.19772C85.4557 8.3261 86.1455 8.4714 86.8198 8.63222C87.0976 8.69852 87.2697 8.97785 87.2048 9.25576C87.1512 9.48147 86.9566 9.63806 86.7365 9.65358V9.65217Z" fill="#D1D1D1"/>
<path d="M88.4292 20.2029C88.2303 20.1027 87.9891 20.1408 87.8283 20.296L83.2749 24.7482C80.3817 24.057 77.3588 23.8214 74.3105 24.0979L70.4455 19.0419C70.3101 18.8641 70.0774 18.7922 69.8644 18.8627L62.6153 21.2708C62.4037 21.3413 62.2598 21.5388 62.257 21.7617L62.1851 28.1255C59.5769 29.728 57.2945 31.7242 55.3917 34.0096L49.0792 33.1674C48.8578 33.1377 48.642 33.252 48.5418 33.4509L45.1183 40.2802C45.0181 40.4805 45.0562 40.7203 45.2114 40.8811L49.6632 45.4349C48.972 48.3283 48.7365 51.3515 49.013 54.4L43.9574 58.2654C43.7796 58.4008 43.7077 58.6336 43.7782 58.8466L46.1861 66.0963C46.2567 66.3079 46.4541 66.4518 46.677 66.4546L53.0402 66.5265C54.6426 69.1349 56.6386 71.4175 58.9238 73.3205L58.0817 79.6335C58.052 79.8549 58.1663 80.0708 58.3652 80.1709L65.1939 83.5948C65.3942 83.6949 65.634 83.6568 65.7948 83.5016L70.3482 79.0494C73.2413 79.7407 76.2642 79.9763 79.3125 79.6998L83.1775 84.7558C83.313 84.9335 83.5457 85.0055 83.7573 84.9349L91.0063 82.5268C91.2179 82.4563 91.3618 82.2588 91.3646 82.0359L91.4366 75.6722C94.0447 74.071 96.3271 72.072 98.23 69.7881L104.542 70.6303C104.764 70.6599 104.98 70.5456 105.08 70.3467L108.503 63.5175C108.603 63.3186 108.565 63.0773 108.41 62.9165L103.958 58.3627C104.65 55.4693 104.885 52.4462 104.609 49.3976L109.664 45.5323C109.842 45.3968 109.914 45.1641 109.843 44.9525L107.436 37.7028C107.365 37.4912 107.167 37.3473 106.945 37.3445L100.581 37.2725C98.979 34.6641 96.9816 32.3816 94.6979 30.4785L95.54 24.1656C95.5696 23.9441 95.4553 23.7283 95.2564 23.6281L88.4278 20.2043L88.4292 20.2029Z" fill="#D1D1D1"/>
<path d="M77.3433 59.4448C76.6282 59.4941 75.9017 59.4405 75.1809 59.2825C73.2089 58.8466 71.5246 57.6687 70.4399 55.9673C69.3537 54.2646 68.9954 52.2416 69.4313 50.2695C69.8672 48.2973 71.0436 46.6143 72.7462 45.5266C74.4488 44.4404 76.4716 44.0821 78.4436 44.518C80.4156 44.9539 82.0998 46.1318 83.186 47.8332C84.2722 49.5359 84.6305 51.5589 84.1946 53.531C83.7587 55.5032 82.5823 57.1862 80.8797 58.2739C79.7992 58.9637 78.5889 59.3601 77.3447 59.4462L77.3433 59.4448ZM76.3898 45.9047C75.4009 45.9724 74.4403 46.2884 73.5813 46.8358C70.7897 48.6175 69.9687 52.3376 71.7489 55.1294C72.6122 56.4823 73.9494 57.4176 75.5166 57.7632C77.0838 58.1088 78.6904 57.8253 80.0432 56.9619C81.396 56.0985 82.3312 54.7612 82.6768 53.1953C83.0224 51.6294 82.7374 50.0212 81.8756 48.6683C81.0123 47.3154 79.675 46.3801 78.1079 46.0345C77.5366 45.9075 76.9582 45.8652 76.3898 45.9047Z" fill="white"/>
<path d="M78.042 71.2256C74.6566 71.4598 71.2571 70.7855 68.1425 69.2238C63.5566 66.9243 60.1388 62.9757 58.5222 58.106C58.0031 56.5415 57.6886 54.9417 57.5785 53.3392C57.3458 49.9534 58.02 46.5536 59.5802 43.4402C61.8794 38.8525 65.8277 35.4358 70.6971 33.8177C70.824 33.7754 70.9524 33.7345 71.0793 33.695C72.1302 33.3705 73.2051 33.1349 74.287 32.9938C74.4224 32.9755 74.5564 32.96 74.6919 32.9445L74.8597 34.4892C73.6198 34.6246 72.3841 34.8941 71.1865 35.2919C66.9491 36.6998 63.472 39.5889 61.3194 43.4712C61.1981 43.6899 61.081 43.9113 60.9696 44.1357C59.535 46.9966 58.9158 50.1213 59.1302 53.2334C59.2317 54.7061 59.5209 56.1761 59.9977 57.615C61.4845 62.0912 64.6244 65.7196 68.8407 67.8328C73.0556 69.9475 77.8431 70.2917 82.3175 68.8048C90.1167 66.2133 94.9099 58.6731 94.3668 50.8281C94.2667 49.3807 93.9846 47.9234 93.5078 46.4831C92.4992 43.4458 90.6894 40.7429 88.2759 38.6677L89.2887 37.4898C91.9166 39.7483 93.8844 42.6897 94.9818 45.9936C95.5023 47.5595 95.8084 49.1451 95.9171 50.7209C96.5081 59.2571 91.2931 67.4618 82.807 70.2804C81.2427 70.7996 79.6445 71.1127 78.042 71.2242V71.2256Z" fill="white"/>
<path d="M64.356 91.4114C64.143 91.4255 63.9258 91.3324 63.7946 91.1448C63.3192 90.4719 62.8086 89.8145 62.2754 89.1909C62.0483 88.9257 62.0793 88.5251 62.3459 88.298C62.6125 88.0708 63.0117 88.1019 63.2388 88.3671C63.7974 89.0203 64.332 89.7101 64.83 90.414C65.0317 90.7004 64.9625 91.0954 64.6776 91.2971C64.5789 91.3663 64.4688 91.4029 64.3574 91.4114H64.356Z" fill="#D1D1D1"/>
<path d="M47.7774 133.98C47.4685 134.001 47.1835 133.794 47.1158 133.483C47.041 133.14 47.2583 132.803 47.5996 132.728C48.8015 132.466 50.0005 132.116 51.167 131.686C51.5789 131.535 51.9838 131.374 52.383 131.206C52.706 131.069 53.077 131.22 53.2138 131.544C53.3506 131.867 53.1997 132.238 52.8767 132.373C52.4591 132.551 52.036 132.717 51.6043 132.875C50.3842 133.325 49.1273 133.692 47.8691 133.966C47.838 133.973 47.807 133.977 47.776 133.978L47.7774 133.98ZM59.7561 128.048C59.5629 128.06 59.3654 127.986 59.23 127.828C59.0029 127.561 59.0339 127.162 59.3005 126.935C60.5701 125.851 61.7437 124.639 62.7903 123.333C63.009 123.059 63.4068 123.016 63.6804 123.234C63.9541 123.453 63.9978 123.852 63.7792 124.125C62.6831 125.492 61.4531 126.761 60.1229 127.897C60.0157 127.988 59.8859 128.038 59.7561 128.046V128.048ZM67.4918 117.15C67.4016 117.156 67.3085 117.143 67.2182 117.108C66.8923 116.981 66.7315 116.614 66.8585 116.287C67.4664 114.726 67.9305 113.104 68.2366 111.461C68.3015 111.116 68.6302 110.888 68.9758 110.954C69.32 111.019 69.5457 111.349 69.4822 111.693C69.1606 113.413 68.6753 115.113 68.0377 116.747C67.946 116.982 67.7274 117.132 67.4904 117.149L67.4918 117.15ZM69.1634 103.888C68.8305 103.91 68.5329 103.669 68.4919 103.333C68.2888 101.679 67.9263 100.03 67.4143 98.4326C67.3071 98.0983 67.4918 97.7428 67.8247 97.6356C68.1562 97.5255 68.5145 97.7117 68.6217 98.0447C69.1577 99.7178 69.5372 101.445 69.7502 103.178C69.7925 103.525 69.5457 103.841 69.1987 103.885C69.1874 103.886 69.1761 103.888 69.1648 103.888H69.1634Z" fill="#D1D1D1"/>
<path d="M39.4389 134.488C39.405 134.49 39.3712 134.49 39.3359 134.488C38.4768 134.407 37.6136 134.286 36.77 134.126C36.4258 134.062 36.2001 133.73 36.265 133.386C36.3299 133.043 36.6614 132.817 37.0056 132.881C37.811 133.033 38.6348 133.149 39.4558 133.225C39.8042 133.257 40.0595 133.566 40.0271 133.915C39.9975 134.228 39.745 134.466 39.4403 134.488H39.4389Z" fill="#D1D1D1"/>
<path d="M19.7159 123.182C19.5043 123.196 19.2899 123.105 19.1573 122.92C18.658 122.222 18.1826 121.489 17.7467 120.743C17.5704 120.441 17.672 120.053 17.9738 119.877C18.2757 119.701 18.6636 119.802 18.8399 120.105C19.2561 120.818 19.7089 121.516 20.1871 122.182C20.3916 122.466 20.3253 122.862 20.0418 123.067C19.943 123.138 19.8302 123.177 19.7173 123.184L19.7159 123.182Z" fill="#D1D1D1"/>
<path d="M15.2994 113.447C14.9948 113.468 14.7112 113.266 14.6393 112.96C14.2951 111.497 14.068 109.995 13.965 108.495C13.9495 108.276 13.9368 108.056 13.9283 107.838C13.9128 107.488 14.1949 107.213 14.5335 107.176C14.8833 107.16 15.1795 107.431 15.1951 107.781C15.2049 107.99 15.2162 108.199 15.2303 108.408C15.3291 109.838 15.5463 111.273 15.875 112.669C15.9554 113.009 15.7438 113.351 15.4038 113.431C15.37 113.44 15.3361 113.444 15.3023 113.447H15.2994ZM15.4673 100.299C15.401 100.303 15.3319 100.299 15.2628 100.279C14.9242 100.19 14.7211 99.8445 14.81 99.506C15.2458 97.8413 15.8383 96.2077 16.5704 94.6489C16.7199 94.3329 17.0965 94.1974 17.4139 94.3456C17.7299 94.4937 17.8667 94.8718 17.7172 95.1892C17.0175 96.6775 16.4519 98.2377 16.0358 99.8276C15.9652 100.097 15.7297 100.28 15.4659 100.299H15.4673ZM21.736 88.7422C21.5695 88.7535 21.3989 88.6999 21.2663 88.5786C21.0081 88.343 20.9884 87.9423 21.2239 87.6828C22.382 86.4103 23.6671 85.2394 25.0424 84.2011C25.3217 83.9909 25.7195 84.0459 25.9297 84.3253C26.1399 84.6046 26.0848 85.0024 25.8055 85.2126C24.4923 86.2043 23.2665 87.3216 22.1606 88.5362C22.0463 88.6618 21.8926 88.7309 21.736 88.7422ZM32.6695 81.446C32.3944 81.4643 32.1292 81.3021 32.0305 81.0298C31.912 80.7011 32.0827 80.3372 32.4114 80.2187C34.0378 79.6318 35.7192 79.1931 37.4105 78.9152C37.7617 78.8432 38.0819 79.0915 38.1384 79.4371C38.1948 79.7828 37.962 80.1086 37.6164 80.1651C36.0013 80.4303 34.3947 80.8507 32.8416 81.4107C32.7852 81.4319 32.7273 81.4432 32.6695 81.4474V81.446Z" fill="#D1D1D1"/>
<path d="M48.2569 80.5462C48.1949 80.5504 48.1314 80.5462 48.0665 80.5307C47.2667 80.3402 46.4486 80.1864 45.636 80.0722C45.2905 80.0228 45.0478 79.7026 45.0972 79.3569C45.1452 79.0099 45.4654 78.7687 45.8124 78.8181C46.6644 78.938 47.5206 79.0988 48.3599 79.2977C48.6999 79.3781 48.9114 79.7195 48.8296 80.0609C48.7647 80.3374 48.5264 80.5278 48.2569 80.5476V80.5462Z" fill="#D1D1D1"/>
<path d="M49.2975 86.8675C49.172 86.8041 49.0211 86.828 48.9209 86.9268L46.0602 89.7242C44.2434 89.2897 42.3433 89.1416 40.4291 89.3165L38.0001 86.1396C37.9155 86.0282 37.7688 85.983 37.6348 86.0267L33.0799 87.539C32.9473 87.5828 32.8571 87.7069 32.8542 87.8466L32.8091 91.8445C31.17 92.8504 29.7368 94.1059 28.5407 95.5406L24.5755 95.0116C24.4358 94.9932 24.3004 95.0652 24.2383 95.1908L22.0872 99.4807C22.0237 99.6063 22.0477 99.7572 22.1464 99.8574L24.9436 102.718C24.5092 104.535 24.3611 106.436 24.536 108.35L21.3593 110.779C21.2479 110.864 21.2027 111.01 21.2465 111.145L22.7586 115.7C22.8024 115.832 22.9265 115.923 23.0675 115.925L27.0652 115.971C28.0709 117.61 29.3264 119.043 30.7609 120.239L30.232 124.205C30.2136 124.345 30.2856 124.48 30.4111 124.542L34.7007 126.693C34.8263 126.757 34.9772 126.733 35.0773 126.634L37.938 123.837C39.7549 124.271 41.6549 124.419 43.5691 124.244L45.9982 127.421C46.0828 127.533 46.2295 127.578 46.3635 127.534L50.9183 126.022C51.0509 125.978 51.1412 125.854 51.1426 125.713L51.1877 121.715C52.8269 120.709 54.26 119.454 55.4562 118.018L59.4214 118.547C59.561 118.565 59.6964 118.493 59.7585 118.367L61.9097 114.077C61.9731 113.952 61.9492 113.801 61.8504 113.701L59.0532 110.84C59.4877 109.023 59.6358 107.123 59.4609 105.208L62.6375 102.779C62.749 102.694 62.7941 102.548 62.7504 102.414L61.2382 97.8584C61.1945 97.7258 61.0704 97.6355 60.9307 97.6327L56.9331 97.5876C55.9273 95.9483 54.6719 94.515 53.2373 93.3187L53.7663 89.3532C53.7846 89.2136 53.7127 89.0781 53.5872 89.0161L49.2975 86.8647V86.8675Z" fill="#D1D1D1"/>
<path d="M42.3672 111.978C40.5235 112.105 38.6686 111.248 37.6064 109.584C36.0604 107.162 36.7742 103.933 39.1962 102.387C41.6181 100.841 44.847 101.555 46.393 103.977C47.939 106.399 47.2253 109.628 44.8033 111.174C44.0444 111.658 43.2079 111.92 42.3672 111.978ZM40.2188 103.989C38.6799 104.971 38.2271 107.022 39.2088 108.562C40.1906 110.101 42.2416 110.554 43.7806 109.572C45.3195 108.59 45.7723 106.539 44.7906 105C43.8088 103.462 41.7578 103.008 40.2188 103.989Z" fill="white"/>
<path d="M42.8031 119.383C40.5941 119.537 38.3767 119.095 36.3454 118.077C33.3535 116.576 31.1248 114.001 30.0697 110.824C29.7311 109.804 29.5266 108.76 29.4532 107.715C29.3009 105.507 29.741 103.29 30.7595 101.26C32.2589 98.2675 34.8347 96.0385 38.0113 94.9833C38.8591 94.7012 39.7365 94.5107 40.6167 94.4148L40.8212 96.3051C40.075 96.3856 39.3302 96.5478 38.6094 96.7876C36.0322 97.6439 33.922 99.4115 32.6285 101.784C32.6087 101.82 32.5904 101.855 32.5707 101.892C32.5312 101.965 32.4931 102.038 32.4564 102.113C31.5931 103.836 31.2193 105.717 31.3491 107.591C31.4097 108.477 31.5846 109.363 31.871 110.227C32.7667 112.922 34.6569 115.107 37.1946 116.38C39.7337 117.653 42.6155 117.862 45.3083 116.965C48.0026 116.071 50.1876 114.179 51.4599 111.641C52.3232 109.919 52.697 108.037 52.5672 106.163C52.5066 105.277 52.3317 104.391 52.0453 103.527C51.4373 101.697 50.3484 100.07 48.8955 98.8219L50.134 97.3801C51.8478 98.8529 53.1315 100.771 53.8481 102.927C54.1866 103.947 54.3911 104.991 54.4645 106.036C54.6168 108.244 54.1767 110.462 53.1583 112.493C51.6588 115.485 49.0831 117.714 45.9064 118.769C44.8866 119.108 43.8427 119.312 42.7989 119.384L42.8031 119.383Z" fill="white"/>
<path d="M174.135 261.284C174.565 261.357 174.994 261.428 175.426 261.497C240.605 271.804 301.89 226.738 312.309 160.841L192.999 141.974L174.135 261.285V261.284Z" fill="#FFD4A9"/>
<path d="M193.553 141.826L113.365 232.191C129.657 246.679 150.068 256.935 173.137 260.891C173.864 261.015 174.59 261.13 175.315 261.242L193.551 141.826H193.553Z" fill="#FFECAE"/>
<path d="M192.999 141.971L74.6567 117.775C74.5058 118.517 74.3577 119.262 74.2195 120.009C66.244 163.149 82.257 205.169 112.81 232.338L192.999 141.971Z" fill="#BAEBFF"/>
<path d="M207.746 132.033L324.878 154.758C335.48 100.099 307.427 46.9105 259.79 23.4178L207.291 131.122C207.106 131.501 207.332 131.953 207.745 132.033H207.746Z" fill="#FFD0BD"/>
<path d="M193.438 142.234L243.528 32.5254C233.981 27.9843 225.448 25.4549 214.537 23.5095C163.639 14.4358 114.515 38.6803 89.5347 80.6209L193.439 142.234H193.438Z" fill="#B7FFE2"/>
<path d="M89.5898 79.5459C82.5918 91.0757 77.4262 103.972 74.5684 117.909L192.885 142.23L89.5912 79.5459H89.5898Z" fill="#BAEBFF"/>
<path d="M112.409 228.144C112.172 228.144 111.935 228.056 111.75 227.88C88.0125 205.307 74.7219 173.669 75.2848 141.08C75.2946 140.558 75.7206 140.14 76.2411 140.14C76.2468 140.14 76.2524 140.14 76.2581 140.14C76.7856 140.149 77.2074 140.585 77.1975 141.114C76.6432 173.169 89.7165 204.29 113.068 226.494C113.45 226.858 113.465 227.464 113.101 227.846C112.914 228.043 112.661 228.144 112.409 228.144Z" fill="white"/>
<path d="M253.866 354.597L326.925 214.62H311.957C309.196 214.62 307.678 211.411 309.429 209.277L387.295 114.367C390.669 110.253 397.336 112.863 397.023 118.174L391.55 210.985C391.236 216.298 386.525 220.258 381.238 219.653L370.803 218.458L298.314 375.456C296.426 379.543 292.335 382.16 287.834 382.16H262.71L253.866 354.597Z" fill="#F15D22"/>
<path d="M193.463 256.424L245.041 371.008C248.097 377.795 254.846 382.16 262.289 382.16H288.878C292.406 382.16 295.656 380.245 297.367 377.16L298.312 375.456C295.456 375.456 292.839 373.855 291.542 371.31L222.82 236.649L193.463 256.425V256.424Z" fill="#F15D22"/>
<path d="M229.762 250.25C224.589 246.165 217.033 247.366 213.382 252.852L137.549 366.797C131.475 375.923 121.239 381.406 110.278 381.406H99.6065L90.9229 356.387C90.9229 356.387 161.422 248.28 179.593 231.927C179.593 231.927 197.688 215.616 215.53 227.949C220.245 231.206 223.823 235.857 226.008 241.153L229.762 250.25Z" fill="#F15D22"/>
<path d="M8.44238 289.101C8.44238 289.101 21.1363 273.233 45.7343 270.764C45.7343 270.764 57.4168 274.745 80.693 316.454C103.968 358.165 119.418 377.186 137.547 366.796L136.046 369.288C131.099 377.502 122.212 382.524 112.626 382.524H102.6C91.5602 382.524 81.9738 365.519 75.5274 356.557C57.4126 331.373 19.572 293.01 8.44379 289.101H8.44238Z" fill="#F15D22"/>
<path d="M274.813 95.9553C279.993 87.4748 277.319 76.4004 268.839 71.2198C260.359 66.0393 249.286 68.7144 244.105 77.1948C238.925 85.6753 241.6 96.7497 250.08 101.93C258.56 107.111 269.633 104.436 274.813 95.9553Z" fill="#F15D22"/>
<path d="M271.771 98.8911C278.564 92.0977 278.564 81.0835 271.771 74.2901C264.979 67.4967 253.965 67.4967 247.172 74.2901C240.38 81.0835 240.38 92.0977 247.172 98.8911C253.965 105.684 264.979 105.684 271.771 98.8911Z" fill="#F15D22"/>
<path opacity="0.78" d="M244.868 80.5405C244.78 80.5447 244.69 80.5278 244.604 80.4883C244.312 80.3557 244.182 80.0101 244.315 79.718C246.93 73.9609 252.476 70.2225 258.789 69.9644C259.796 69.9234 260.809 69.9728 261.799 70.1111C262.116 70.1548 262.339 70.4496 262.294 70.7671C262.25 71.0859 261.957 71.3102 261.637 71.2622C260.717 71.1338 259.775 71.0887 258.837 71.1268C252.964 71.368 247.806 74.844 245.374 80.1991C245.28 80.4065 245.081 80.5306 244.868 80.5405Z" fill="white"/>
<path opacity="0.78" d="M270.277 97.3638C276.026 91.6139 276.026 82.2914 270.277 76.5415C264.527 70.7915 255.206 70.7915 249.456 76.5415C243.707 82.2914 243.707 91.6139 249.456 97.3638C255.206 103.114 264.527 103.114 270.277 97.3638Z" fill="white"/>
<path d="M305.144 74.0992C321.361 74.0992 334.508 60.9512 334.508 44.7323C334.508 28.5135 321.361 15.3655 305.144 15.3655C288.926 15.3655 275.779 28.5135 275.779 44.7323C275.779 60.9512 288.926 74.0992 305.144 74.0992Z" fill="#F15D22"/>
<path d="M325.217 64.8061C336.303 53.7195 336.303 35.7444 325.217 24.6577C314.131 13.571 296.158 13.5711 285.072 24.6577C273.986 35.7444 273.986 53.7195 285.072 64.8061C296.158 75.8928 314.131 75.8928 325.217 64.8061Z" fill="#F15D22"/>
<path opacity="0.78" d="M281.294 34.4554C281.212 34.4582 281.127 34.4441 281.047 34.4074C280.773 34.2833 280.652 33.9588 280.776 33.6851C284.98 24.428 293.898 18.4198 304.047 18.0022C305.666 17.9359 307.294 18.0149 308.885 18.2378C309.184 18.2787 309.392 18.5552 309.349 18.8529C309.307 19.1505 309.032 19.3621 308.733 19.317C307.207 19.1026 305.644 19.0278 304.091 19.0913C294.355 19.4919 285.801 25.2561 281.768 34.1351C281.68 34.3284 281.493 34.4469 281.294 34.4554Z" fill="white"/>
<path opacity="0.78" d="M322.776 62.316C332.159 52.9323 332.159 37.7181 322.776 28.3344C313.393 18.9506 298.181 18.9505 288.798 28.3343C279.415 37.7181 279.415 52.9323 288.798 62.3161C298.181 71.6998 313.393 71.6998 322.776 62.316Z" fill="white"/>
<path d="M349.436 130.804C361.236 119.003 361.236 99.8702 349.436 88.0695C337.637 76.2689 318.506 76.2689 306.706 88.0695C294.906 99.8702 294.906 119.003 306.706 130.804C318.506 142.604 337.637 142.604 349.436 130.804Z" fill="#F15D22"/>
<path d="M348.726 130.093C360.133 118.685 360.133 100.188 348.726 88.7797C337.318 77.3713 318.823 77.3713 307.416 88.7798C296.008 100.188 296.008 118.685 307.416 130.093C318.823 141.502 337.318 141.502 348.726 130.093Z" fill="#F15D22"/>
<path opacity="0.78" d="M303.529 98.846C303.447 98.8488 303.362 98.8347 303.282 98.798C303.008 98.6739 302.887 98.3494 303.011 98.0757C307.335 88.5562 316.505 82.3773 326.942 81.9485C328.608 81.8793 330.282 81.9612 331.918 82.1911C332.216 82.232 332.425 82.5085 332.383 82.8062C332.34 83.1038 332.068 83.314 331.766 83.2703C330.195 83.0502 328.585 82.9712 326.986 83.0375C316.962 83.4495 308.154 89.3843 304.003 98.5258C303.915 98.719 303.728 98.8375 303.529 98.846Z" fill="white"/>
<path opacity="0.78" d="M346.214 127.528C355.87 117.872 355.87 102.217 346.214 92.561C336.559 82.9051 320.905 82.9051 311.25 92.561C301.595 102.217 301.595 117.872 311.25 127.528C320.905 137.184 336.559 137.184 346.214 127.528Z" fill="white"/>
<path d="M387.85 58.1194C388.135 44.7754 377.548 33.7275 364.206 33.4433C350.863 33.1592 339.816 43.7463 339.532 57.0903C339.247 70.4343 349.834 81.4821 363.176 81.7663C376.519 82.0504 387.566 71.4634 387.85 58.1194Z" fill="#F15D22"/>
<path d="M380.223 74.1278C389.346 65.0041 389.346 50.2115 380.223 41.0878C371.1 31.964 356.309 31.964 347.186 41.0878C338.063 50.2115 338.063 65.0041 347.186 74.1278C356.309 83.2516 371.1 83.2516 380.223 74.1278Z" fill="#F15D22"/>
<path opacity="0.78" d="M344.084 49.2959C343.993 49.3002 343.902 49.2832 343.814 49.2437C343.515 49.1069 343.383 48.7542 343.518 48.4551C347.001 40.7865 354.388 35.8095 362.795 35.4639C364.135 35.4088 365.484 35.4737 366.804 35.66C367.13 35.7051 367.357 36.0056 367.31 36.3315C367.265 36.6573 366.966 36.8887 366.639 36.8379C365.389 36.663 364.113 36.6009 362.844 36.6531C354.889 36.9804 347.898 41.6908 344.601 48.9475C344.505 49.1591 344.301 49.2875 344.084 49.2959Z" fill="white"/>
<path opacity="0.78" d="M378.216 72.0769C385.937 64.3547 385.937 51.8345 378.216 44.1123C370.494 36.3901 357.975 36.3901 350.254 44.1123C342.532 51.8345 342.532 64.3547 350.254 72.0769C357.975 79.7991 370.494 79.7991 378.216 72.0769Z" fill="white"/>
<path d="M96.397 382.034C90.6545 382.531 80.6858 383.338 72.8288 383.683C68.1047 383.891 65.3851 383.428 63.8193 382.802C63.8222 382.978 63.8264 383.144 63.8334 383.3C63.8701 384.126 64.543 384.788 65.378 384.834C80.226 385.664 92.034 385.121 96.239 384.865C97.1079 384.812 97.627 383.868 97.1813 383.126C96.9584 382.755 96.689 382.392 96.397 382.033V382.034Z" fill="#3E3E3E"/>
<path d="M72.8288 383.683C80.6872 383.338 90.6545 382.531 96.397 382.034C90.7504 375.106 72.8288 370.437 72.8288 370.437H67.7676C64.2863 375.456 63.7827 380.234 63.8208 382.802C65.3865 383.429 68.1061 383.891 72.8302 383.683H72.8288Z" fill="#080808"/>
<path d="M66.9136 362.173L67.3875 371.547C67.4383 372.563 68.1986 373.415 69.2157 373.56C70.2271 373.705 71.5812 373.724 73.0186 373.245C73.9017 372.951 74.559 372.207 74.7212 371.299L76.3575 362.173H66.915H66.9136Z" fill="url(#paint0_linear_4004_227)"/>
<path d="M8.16539 392.849C5.67428 392.4 4.54863 390.727 4.07608 388.94C4.07326 388.955 4.07043 388.972 4.0662 388.988C3.69945 390.874 4.54863 392.827 6.24698 393.757C8.2994 394.88 10.5437 395.072 12.2857 394.979C14.1548 394.879 15.8715 393.88 16.8137 392.279L16.8278 392.255C14.9518 393.455 12.3182 393.596 8.16398 392.847L8.16539 392.849Z" fill="#3E3E3E"/>
<path d="M19.9087 365.061H15.7347C9.37577 364.893 5.38379 382.226 4.07617 388.94C4.54872 390.727 5.67579 392.4 8.16548 392.849C12.3197 393.598 14.9533 393.457 16.8294 392.256C20.2641 386.413 21.9681 377.856 22.7863 372.862C23.7173 367.182 19.9087 365.061 19.9087 365.061Z" fill="black"/>
<path d="M16.2709 356.359L13.9533 365.58C13.6698 366.71 14.21 367.879 15.2553 368.415C16.5516 369.081 18.3784 369.779 20.0555 369.578C20.8441 369.483 21.5 368.927 21.761 368.184L25.1647 358.484L16.2723 356.359H16.2709Z" fill="url(#paint1_linear_4004_227)"/>
<path d="M97.8116 234.925C97.8116 234.925 77.097 364.419 77.4384 365.131C77.4384 365.131 71.717 367.731 65.4808 365.463C65.4808 365.463 67.354 296.239 71.7438 269.696C71.7438 269.696 36.3915 331.569 25.1646 362.398C25.1646 362.398 19.3092 361.7 14.4624 358.511C14.4624 358.511 52.5273 247.143 62.6821 232.309L97.813 234.925H97.8116Z" fill="#080808"/>
<path d="M192.869 108.123C192.869 108.123 178.892 111.207 170.39 115.131C168.702 115.911 167.355 117.274 166.587 118.954C164.044 124.525 156.437 138.493 141.685 145.158C143.809 147.978 147.23 153.844 148.721 163.705C157.582 157.11 165.232 146.095 168.903 128.029C168.903 128.029 171.701 129.55 175.189 127.856C177.033 126.96 179.16 125.69 180.758 124.692C182.349 123.697 183.535 122.15 183.995 120.342C184.603 117.957 184.245 115.859 184.245 113.609L191.429 111.383C191.429 111.383 193.589 110.568 192.868 108.121L192.869 108.123Z" fill="#FFCEB2"/>
<path d="M148.72 163.705C147.23 153.846 143.808 147.978 141.684 145.158C132.519 149.299 120.597 150.623 105.416 145.363C104.017 144.878 102.557 144.594 101.077 144.507C92.9957 144.033 66.3637 143.168 44.326 150.45C39.6879 151.982 35.9315 155.411 33.9962 159.854C28.035 173.535 18.3837 204.693 45.1766 220.423C47.2346 215.312 49.6115 211.204 51.6427 208.185C47.3277 200.907 46.0497 190.966 53.7064 178.02C59.2896 193.096 61.909 215.096 62.4563 224.831C62.6369 228.036 62.0741 231.236 60.8172 234.196L60.6804 234.519C60.411 235.152 60.782 235.88 61.4591 236.032C76.5425 239.421 92.2298 238.5 96.9172 238.113C97.7536 238.044 98.4491 237.446 98.6409 236.636C105.976 205.729 105.993 184.646 104.196 171.317C111.057 172.851 132.037 176.124 148.72 163.705Z" fill="#F3C426"/>
<path d="M67.0017 126.501C67.0017 126.501 65.4755 142.636 64.1326 147.41C63.9295 148.133 64.2426 148.897 64.9014 149.273C67.1809 150.577 72.6512 152.701 80.1316 149.035C81.3433 148.441 82.0725 147.177 82.0161 145.841L81.3574 130.25L67.0032 126.503L67.0017 126.501Z" fill="#F1C3A9"/>
<path d="M81.684 105.86C81.684 105.86 86.5647 117.072 86.8919 122.958C87.2192 128.843 88.4873 132.661 81.684 133.846C74.8807 135.031 69.1481 131.641 66.0434 125.779C66.0434 125.779 61.1782 116.747 62.27 113.048C63.3618 109.349 81.6854 105.86 81.6854 105.86H81.684Z" fill="#FFCEB2"/>
<path d="M68.3685 121.564L68.7564 121.393C69.2501 121.176 69.4603 120.589 69.2134 120.111C68.2542 118.257 66.3838 114.008 68.8001 113.018C71.9147 111.741 84.2489 109.225 86.9107 104.849C89.4681 100.642 87.2027 95.2106 83.7961 93.6672C83.5676 93.5643 83.2996 93.6461 83.1825 93.8676L82.899 94.405C82.7043 94.7732 82.1612 94.7168 82.0456 94.3176C81.9341 93.9339 81.4249 93.8591 81.2133 94.1977C80.3952 95.5068 78.1862 97.6299 72.28 98.7204C63.8856 100.269 58.3363 103.666 58.1981 109.467C58.1896 109.835 57.7975 110.04 57.4829 109.848C56.8637 109.47 55.872 109.294 54.546 110.408C52.2411 112.347 53.1848 117.376 58.2376 121.512C58.4774 121.708 58.476 122.083 58.2164 122.253C57.3009 122.849 55.9341 124.268 59.4733 126.16C63.1337 128.117 65.8675 127.956 66.9198 127.783C67.1821 127.739 67.35 127.486 67.2936 127.227L66.1707 122.128C66.1073 121.839 66.3273 121.567 66.6221 121.567H68.3713L68.3685 121.564Z" fill="black"/>
<path d="M68.5801 122.64C68.5801 122.64 66.7181 115.478 63.5076 117.487C60.2971 119.496 65.1735 125.513 67.7549 125.781L68.5801 122.642V122.64Z" fill="#FFCEB2"/>
<path d="M172.63 126.363C172.495 126.363 172.358 126.318 172.245 126.227C171.983 126.014 171.943 125.628 172.156 125.366C172.685 124.716 177.376 118.98 179.183 117.96C179.84 117.589 180.232 117.205 180.315 116.851C180.355 116.682 180.328 116.491 180.233 116.275L174.722 117.38L171.599 120.059C171.344 120.279 170.957 120.251 170.737 119.993C170.517 119.736 170.547 119.351 170.804 119.129L174.048 116.344C174.127 116.277 174.223 116.23 174.326 116.209L180.427 114.986C180.672 114.937 180.916 115.04 181.054 115.244C181.502 115.907 181.65 116.525 181.507 117.129C181.338 117.844 180.775 118.463 179.786 119.022C178.426 119.789 174.504 124.418 173.107 126.136C172.987 126.286 172.809 126.362 172.632 126.362L172.63 126.363Z" fill="#F8A570"/>
<path d="M68.3429 228.177L89.9151 228.444L82.3656 221.337C80.4895 219.571 77.6246 219.284 75.4579 220.689C74.1898 221.512 72.8145 222.629 71.6225 224.107C71.6225 224.107 58.1655 219.19 51.6415 208.185C49.6102 211.204 47.2333 215.312 45.1753 220.423C51.0236 223.856 58.6041 226.556 68.3415 228.177H68.3429Z" fill="#FFCEB2"/>
<path d="M70.6678 230.959C70.7101 230.961 70.751 230.962 70.7933 230.962L125.553 230.903C126.907 230.903 128.003 229.815 128.001 228.475C128.001 227.135 126.897 226.028 125.547 226.053L70.7877 226.112C69.4335 226.112 68.3375 227.2 68.3389 228.54C68.3403 229.838 69.3714 230.897 70.6663 230.959H70.6678Z" fill="#1C1C1C"/>
<path d="M174.779 181.762H129.175C125.811 181.762 122.748 183.683 121.314 186.694L100.231 230.931H156.904C159.072 230.931 161.021 229.62 161.818 227.626L178.166 186.691C179.111 184.325 177.35 181.762 174.779 181.762Z" fill="#494949"/>
<path d="M149.475 206.647C150.475 203.612 149.76 200.65 147.878 200.029C145.995 199.409 143.659 201.366 142.659 204.4C141.659 207.435 142.374 210.398 144.256 211.018C146.139 211.639 148.475 209.682 149.475 206.647Z" fill="white"/>
<path d="M297.422 43.374C297.422 44.178 297.236 44.91 296.864 45.57C296.492 46.218 295.94 46.734 295.208 47.118C294.488 47.502 293.612 47.694 292.58 47.694H290.996V51.744H287V39H292.58C294.14 39 295.334 39.396 296.162 40.188C297.002 40.98 297.422 42.042 297.422 43.374ZM292.13 44.544C292.958 44.544 293.372 44.154 293.372 43.374C293.372 42.594 292.958 42.204 292.13 42.204H290.996V44.544H292.13Z" fill="#F15D22"/>
<path d="M306.393 51.744L302.685 46.218V51.744H298.689V39H302.685V44.364L306.339 39H310.857L306.465 45.102L311.145 51.744H306.393Z" fill="#F15D22"/>
<path d="M318.685 51.744L316.291 47.172H316.273V51.744H312.277V39H318.217C319.249 39 320.131 39.186 320.863 39.558C321.595 39.918 322.141 40.416 322.501 41.052C322.873 41.676 323.059 42.384 323.059 43.176C323.059 44.028 322.819 44.784 322.339 45.444C321.871 46.104 321.193 46.578 320.305 46.866L323.077 51.744H318.685ZM316.273 44.508H317.857C318.241 44.508 318.529 44.424 318.721 44.256C318.913 44.076 319.009 43.8 319.009 43.428C319.009 43.092 318.907 42.828 318.703 42.636C318.511 42.444 318.229 42.348 317.857 42.348H316.273V44.508Z" fill="#F15D22"/>
<path d="M321.422 108.374C321.422 109.178 321.236 109.91 320.864 110.57C320.492 111.218 319.94 111.734 319.208 112.118C318.488 112.502 317.612 112.694 316.58 112.694H314.996V116.744H311V104H316.58C318.14 104 319.334 104.396 320.162 105.188C321.002 105.98 321.422 107.042 321.422 108.374ZM316.13 109.544C316.958 109.544 317.372 109.154 317.372 108.374C317.372 107.594 316.958 107.204 316.13 107.204H314.996V109.544H316.13Z" fill="#F15D22"/>
<path d="M330.393 116.744L326.685 111.218V116.744H322.689V104H326.685V109.364L330.339 104H334.857L330.465 110.102L335.145 116.744H330.393Z" fill="#F15D22"/>
<path d="M342.685 116.744L340.291 112.172H340.273V116.744H336.277V104H342.217C343.249 104 344.131 104.186 344.863 104.558C345.595 104.918 346.141 105.416 346.501 106.052C346.873 106.676 347.059 107.384 347.059 108.176C347.059 109.028 346.819 109.784 346.339 110.444C345.871 111.104 345.193 111.578 344.305 111.866L347.077 116.744H342.685ZM340.273 109.508H341.857C342.241 109.508 342.529 109.424 342.721 109.256C342.913 109.076 343.009 108.8 343.009 108.428C343.009 108.092 342.907 107.828 342.703 107.636C342.511 107.444 342.229 107.348 341.857 107.348H340.273V109.508Z" fill="#F15D22"/>
<path d="M356.955 56.7754C356.955 57.4694 356.795 58.1012 356.476 58.6709C356.156 59.2302 355.682 59.6756 355.053 60.0071C354.434 60.3385 353.681 60.5042 352.795 60.5042H351.434V64H348V53H352.795C354.135 53 355.161 53.3418 355.873 54.0254C356.594 54.709 356.955 55.6257 356.955 56.7754ZM352.408 57.7853C353.12 57.7853 353.475 57.4487 353.475 56.7754C353.475 56.1022 353.12 55.7655 352.408 55.7655H351.434V57.7853H352.408Z" fill="#F15D22"/>
<path d="M364.664 64L361.478 59.2302V64H358.044V53H361.478V57.6299L364.618 53H368.5L364.726 58.2669L368.747 64H364.664Z" fill="#F15D22"/>
<path d="M375.226 64L373.169 60.0537H373.154V64H369.72V53H374.824C375.711 53 376.469 53.1605 377.098 53.4816C377.727 53.7924 378.196 54.2222 378.505 54.7712C378.825 55.3098 378.985 55.9209 378.985 56.6045C378.985 57.3399 378.778 57.9925 378.366 58.5621C377.964 59.1318 377.381 59.541 376.618 59.7895L379 64H375.226ZM373.154 57.7542H374.515C374.845 57.7542 375.092 57.6817 375.257 57.5367C375.422 57.3814 375.505 57.1431 375.505 56.822C375.505 56.532 375.417 56.3041 375.242 56.1384C375.077 55.9727 374.834 55.8898 374.515 55.8898H373.154V57.7542Z" fill="#F15D22"/>
<path d="M254.644 85.7458C254.644 86.2505 254.526 86.71 254.288 87.1243C254.051 87.5311 253.699 87.855 253.233 88.096C252.774 88.3371 252.215 88.4576 251.557 88.4576H250.548V91H248V83H251.557C252.552 83 253.313 83.2486 253.841 83.7458C254.376 84.2429 254.644 84.9096 254.644 85.7458ZM251.27 86.4802C251.798 86.4802 252.062 86.2354 252.062 85.7458C252.062 85.2561 251.798 85.0113 251.27 85.0113H250.548V86.4802H251.27Z" fill="#F15D22"/>
<path d="M260.364 91L258 87.5311V91H255.452V83H258V86.3672L260.329 83H263.21L260.41 86.8305L263.393 91H260.364Z" fill="#F15D22"/>
<path d="M268.2 91L266.674 88.1299H266.662V91H264.115V83H267.902C268.56 83 269.122 83.1168 269.589 83.3503C270.055 83.5763 270.403 83.8889 270.633 84.2881C270.87 84.6798 270.989 85.1243 270.989 85.6215C270.989 86.1563 270.836 86.6309 270.53 87.0452C270.231 87.4595 269.799 87.7571 269.233 87.9379L271 91H268.2ZM266.662 86.4576H267.672C267.917 86.4576 268.101 86.4049 268.223 86.2994C268.345 86.1864 268.407 86.0132 268.407 85.7797C268.407 85.5687 268.342 85.403 268.211 85.2825C268.089 85.162 267.909 85.1017 267.672 85.1017H266.662V86.4576Z" fill="#F15D22"/>
</g>
<defs>
<linearGradient id="paint0_linear_4004_227" x1="66.9136" y1="367.912" x2="76.3575" y2="367.912" gradientUnits="userSpaceOnUse">
<stop stop-color="#FEBBBA"/>
<stop offset="1" stop-color="#FF928E"/>
</linearGradient>
<linearGradient id="paint1_linear_4004_227" x1="13.8771" y1="362.987" x2="25.1633" y2="362.987" gradientUnits="userSpaceOnUse">
<stop stop-color="#FEBBBA"/>
<stop offset="1" stop-color="#FF928E"/>
</linearGradient>
<clipPath id="clip0_4004_227">
<rect width="396.294" height="395" fill="white" transform="translate(0.739258)"/>
</clipPath>
</defs>
</svg>
